<svg width="360" height="321" viewBox="0 0 360 321" fill="none" xmlns="http://www.w3.org/2000/svg">
<path fill-rule="evenodd" clip-rule="evenodd" d="M360 0H0V321H360V0ZM148.34 30.5616L153.447 40.7764L153.5 40.882V41V82.5V88.8162L157.158 93.1199L160 87.8733V56.5V56.3486L160.084 56.2226L163 51.8486V45.9146C162.417 45.7087 162 45.1531 162 44.5C162 43.6716 162.672 43 163.5 43C164.328 43 165 43.6716 165 44.5C165 45.1531 164.583 45.7087 164 45.9146V52V52.1514L163.916 52.2774L161 56.6514V88V88.1267L160.94 88.2381L157.853 93.9371L161.881 98.6762L162 98.8162V99V125.394L166.051 134.563L168 123.954V112.915C167.417 112.709 167 112.153 167 111.5C167 110.672 167.672 110 168.5 110C169.328 110 170 110.672 170 111.5C170 112.153 169.583 112.709 169 112.915V124V124.046L168.992 124.09L166.77 136.189L170.667 145.009C171.417 145.092 172 145.728 172 146.5C172 147.328 171.328 148 170.5 148C169.672 148 169 147.328 169 146.5C169 145.975 169.27 145.513 169.678 145.245L165.793 136.452L161.043 125.702L161 125.606V125.5V99.1838L156.869 94.3238L152.619 89.3238L152.5 89.1838V89V82.7071L145.646 75.8536L145.5 75.7071V75.5V54.2212L140.468 49.6463C140.206 49.867 139.869 50 139.5 50C138.672 50 138 49.3284 138 48.5C138 47.6716 138.672 47 139.5 47C140.328 47 141 47.6716 141 48.5C141 48.5882 140.992 48.6746 140.978 48.7586L146.336 53.63L146.5 53.7788V54V75.2929L152.5 81.2929V41.118L147.277 30.6711C145.733 30.5544 144.516 29.2647 144.516 27.6908C144.516 26.0401 145.854 24.7019 147.505 24.7019C149.156 24.7019 150.494 26.0401 150.494 27.6908C150.494 29.0518 149.584 30.2004 148.34 30.5616ZM210 41.1693L216.397 32.8037L215.603 32.1963L209.103 40.6963L209 40.8307V41V49.8041L196.633 63.1603L196.5 63.3041V63.5V76.347L191.625 71.7832V57.6725L196.937 50.8909C197.111 50.9613 197.301 51 197.5 51C198.328 51 199 50.3284 199 49.5C199 48.6716 198.328 48 197.5 48C196.672 48 196 48.6716 196 49.5C196 49.7636 196.068 50.0113 196.187 50.2266L190.731 57.1917L190.625 57.3275V57.5V72V72.2168L190.783 72.365L196.5 77.7168V100.293L191.625 105.168V85.5V85.3055L191.494 85.1621L182 74.8055V63.9146C182.583 63.7087 183 63.1531 183 62.5C183 61.6716 182.328 61 181.5 61C180.672 61 180 61.6716 180 62.5C180 63.1531 180.417 63.7087 181 63.9146V75V75.1945L181.131 75.3379L190.625 85.6945V106.168L185.75 111.043V93.5V93.2955L185.607 93.1496L172 79.2955V61.1825L179.192 52.6423C179.737 53.2282 180.516 53.5947 181.38 53.5947C183.03 53.5947 184.368 52.2565 184.368 50.6058C184.368 48.9551 183.03 47.6169 181.38 47.6169C179.729 47.6169 178.391 48.9551 178.391 50.6058C178.391 51.0167 178.474 51.4082 178.624 51.7646L171.118 60.6779L171 60.8175V61V79.5V79.7045L171.143 79.8504L184.75 93.7045V112.043L179.875 116.918V113.5V98V97.7941L179.73 97.6479L165 82.7941V61.1729L169.936 54.8905C170.11 54.9611 170.301 55 170.5 55C171.328 55 172 54.3284 172 53.5C172 52.6716 171.328 52 170.5 52C169.672 52 169 52.6716 169 53.5C169 53.7632 169.068 54.0106 169.187 54.2256L164.107 60.6911L164 60.8271V61V83V83.2059L164.145 83.3521L178.875 98.2059V112.834L173 111.125V100.5V100.293L172.854 100.146L167.854 95.1467C167.948 94.9509 168 94.7316 168 94.5C168 93.6716 167.328 93 166.5 93C165.672 93 165 93.6716 165 94.5C165 95.3284 165.672 96 166.5 96C166.732 96 166.951 95.9475 167.147 95.8538L172 100.707V111.5V111.875L172.36 111.98L178.875 113.875V117.906L172.661 123.632L172.484 123.796L172.501 124.036L173.898 143.126C173.369 143.358 173 143.886 173 144.5C173 145.328 173.672 146 174.5 146C175.328 146 176 145.328 176 144.5C176 143.808 175.532 143.226 174.895 143.053L173.516 124.204L179.714 118.493L179.721 118.486L179.729 118.479L185.604 112.604L191.479 106.729L197.354 100.854L197.5 100.707V100.5V77.5V63.6959L209.867 50.3397L210 50.1959V50V41.1693ZM215 43.9146C215.583 43.7087 216 43.1531 216 42.5C216 41.6716 215.328 41 214.5 41C213.672 41 213 41.6716 213 42.5C213 43.1531 213.417 43.7087 214 43.9146V50.7986L201.64 63.6534L201.5 63.7986V64V101.286L178.654 123.139L178.505 123.281L178.5 123.488L178.023 142.577C177.428 142.777 177 143.338 177 144C177 144.828 177.672 145.5 178.5 145.5C179.328 145.5 180 144.828 180 144C180 143.355 179.593 142.806 179.023 142.594L179.495 123.719L202.346 101.861L202.5 101.714V101.5V64.2014L214.86 51.3466L215 51.2014V51V43.9146ZM219.239 55.9774L213 62.6963V102.5V102.704L212.858 102.849L191.458 124.747L187.194 144.17C187.673 144.42 188 144.922 188 145.5C188 146.328 187.328 147 186.5 147C185.672 147 185 146.328 185 145.5C185 144.774 185.516 144.168 186.201 144.03L190.512 124.393L190.542 124.253L190.642 124.151L212 102.296V62.5V62.3037L212.134 62.1598L218.351 55.4642C218.132 55.2035 218 54.8671 218 54.5C218 53.6716 218.672 53 219.5 53C220.328 53 221 53.6716 221 54.5C221 55.3284 220.328 56 219.5 56C219.411 56 219.324 55.9922 219.239 55.9774ZM138 59.9146C137.417 59.7087 137 59.1531 137 58.5C137 57.6716 137.672 57 138.5 57C139.328 57 140 57.6716 140 58.5C140 59.1531 139.583 59.7087 139 59.9146V83.3059L154.869 100.663L155 100.806V101V139.318L165.942 148.107C166.115 148.038 166.303 148 166.5 148C167.328 148 168 148.672 168 149.5C168 150.328 167.328 151 166.5 151C165.672 151 165 150.328 165 149.5C165 149.239 165.067 148.994 165.183 148.781L154.187 139.947L147.891 134.89L136.687 125.89L136.5 125.74V125.5V119H115.5H115.293L115.146 118.854L100.147 103.854C99.9509 103.948 99.7316 104 99.5 104C98.6716 104 98 103.328 98 102.5C98 101.672 98.6716 101 99.5 101C100.328 101 101 101.672 101 102.5C101 102.732 100.948 102.951 100.854 103.147L115.707 118H136.5V114H115.5H115.293L115.146 113.854L109.146 107.854L109 107.707V107.5V97.75L101.2 91.9L101 91.75V91.5V79.2071L86.651 64.8581C86.1326 65.2903 85.4657 65.5504 84.7379 65.5504C83.0872 65.5504 81.749 64.2122 81.749 62.5615C81.749 60.9108 83.0872 59.5726 84.7379 59.5726C86.3887 59.5726 87.7269 60.9108 87.7269 62.5615C87.7269 63.1226 87.5722 63.6476 87.3033 64.0962L101.854 78.6464L102 78.7929V79V91.25L109.8 97.1L110 97.25V97.5V107.293L115.707 113H136.5V106.5H120H119.77L119.62 106.325L113.62 99.3254L113.5 99.185V99V80.6729L108.143 73.8554C107.948 73.9481 107.73 74 107.5 74C106.672 74 106 73.3284 106 72.5C106 71.6716 106.672 71 107.5 71C108.328 71 109 71.6716 109 72.5C109 72.7847 108.921 73.0509 108.783 73.2777L108.893 73.1911L114.393 80.1911L114.5 80.3271V80.5V98.815L120.23 105.5H136.5V102.194L131.28 96.5H123H122.732L122.584 96.2774L119.722 91.9837C119.649 91.9945 119.575 92 119.5 92C118.672 92 118 91.3284 118 90.5C118 89.6716 118.672 89 119.5 89C120.328 89 121 89.6716 121 90.5C121 90.8895 120.852 91.2443 120.608 91.5109L123.268 95.5H131.5H131.72L131.869 95.6621L136.5 100.715V91.7546L125.706 83.9044L125.5 83.7546V83.5V67.5418C123.889 67.496 122.598 66.1759 122.598 64.5541C122.598 62.9034 123.936 61.5652 125.587 61.5652C127.237 61.5652 128.576 62.9034 128.576 64.5541C128.576 65.8862 127.704 67.0148 126.5 67.4008V83.2454L137.294 91.0956L137.5 91.2454V91.5V102V106V113.5V118.5V125.26L147.704 133.457V125.757L142.311 121.907L142.102 121.757V121.5V110.947C141.467 110.772 141 110.191 141 109.5C141 108.672 141.672 108 142.5 108C143.328 108 144 108.672 144 109.5C144 110.114 143.631 110.642 143.102 110.874V121.243L147.704 124.529V103.199L142.763 97.977C142.678 97.9921 142.59 98 142.5 98C141.672 98 141 97.3284 141 96.5C141 95.6716 141.672 95 142.5 95C143.328 95 144 95.6716 144 96.5C144 96.8657 143.869 97.2009 143.652 97.4612L148.567 102.656L148.704 102.801V103V125.5V134.26L154 138.514V101.194L138.131 83.8374L138 83.6941V83.5V59.9146ZM222.024 60.7689C222.008 60.6816 222 60.5918 222 60.5C222 59.6716 222.672 59 223.5 59C224.328 59 225 59.6716 225 60.5C225 61.3284 224.328 62 223.5 62C223.139 62 222.807 61.8721 222.548 61.6592L217 67.2071V105V105.207L216.854 105.354L209.707 112.5H214.282L226.5 99.3041V74.1385L223.972 69.9244C223.823 69.9734 223.665 70 223.5 70C222.672 70 222 69.3284 222 68.5C222 67.6716 222.672 67 223.5 67C224.328 67 225 67.6716 225 68.5C225 68.7962 224.914 69.0723 224.766 69.3049L227.429 73.7428L227.5 73.8615V74V99.5V99.6959L227.367 99.8397L214.867 113.34L214.718 113.5H214.5H208.713L195.95 126.754L190.644 146.53C190.866 146.791 191 147.13 191 147.5C191 148.328 190.328 149 189.5 149C188.672 149 188 148.328 188 147.5C188 146.672 188.672 146 189.5 146C189.584 146 189.665 146.007 189.745 146.02L195.017 126.37L195.05 126.246L195.14 126.153L208.14 112.653L208.146 112.646L216 104.793V67V66.7929L216.146 66.6464L222.024 60.7689ZM276.231 66.9477L252.732 89.3618L244.5 97.2141V117.931L251.887 111.766V100.869C251.364 100.635 251 100.11 251 99.5C251 98.6716 251.672 98 252.5 98C253.328 98 254 98.6716 254 99.5C254 100.195 253.528 100.779 252.887 100.95V112V112.234L252.707 112.384L244.5 119.234V126.394L256 116.274V103.5V103.263L256.183 103.113L261.115 99.0778C261.041 98.9 261 98.7048 261 98.5C261 97.6716 261.672 97 262.5 97C263.328 97 264 97.6716 264 98.5C264 99.3284 263.328 100 262.5 100C262.242 100 261.999 99.9349 261.787 99.8201L257 103.737V116.5V116.726L256.83 116.875L244.33 127.875L244.329 127.876L216.329 152.376L216.188 152.5H216H195.637L195.628 152.511C195.86 152.775 196 153.121 196 153.5C196 154.328 195.328 155 194.5 155C193.672 155 193 154.328 193 153.5C193 152.672 193.672 152 194.5 152C194.582 152 194.663 152.007 194.742 152.019L207.5 135.827V127V126.793L207.646 126.646L214.146 120.146L214.293 120H214.5H223.822L228.271 116.36C228.1 116.116 228 115.82 228 115.5C228 114.672 228.672 114 229.5 114C230.328 114 231 114.672 231 115.5C231 116.328 230.328 117 229.5 117C229.371 117 229.245 116.984 229.125 116.953L224.317 120.887L224.178 121H224H214.707L208.5 127.207V136V136.173L208.393 136.309L203.909 142H215.809L234.5 125.276V88.5V88.3135L234.622 88.1725L241.027 80.7828C241.009 80.6912 241 80.5967 241 80.5C241 79.6716 241.672 79 242.5 79C243.328 79 244 79.6716 244 80.5C244 81.3284 243.328 82 242.5 82C242.15 82 241.828 81.8802 241.573 81.6793L235.5 88.6865V125.5V125.724L235.333 125.873L216.333 142.873L216.191 143H216H203.121L200.758 146H216.31L238.5 126.275V96.5V96.2929L238.646 96.1464L246.5 88.2929V77V76.7929L246.646 76.6464L250.146 73.1467C250.052 72.9509 250 72.7316 250 72.5C250 71.6716 250.672 71 251.5 71C252.328 71 253 71.6716 253 72.5C253 73.3284 252.328 74 251.5 74C251.268 74 251.049 73.9475 250.853 73.8538L247.5 77.2071V88.5V88.7071L247.354 88.8536L239.5 96.7071V126.5V126.725L239.332 126.874L216.832 146.874L216.69 147H216.5H199.97L196.424 151.5H215.812L243.5 127.273V119V97V96.7859L243.655 96.6382L251.887 88.7859V78.5V78.3208L252.001 78.1824L256.114 73.1824L256.205 73.2572C256.075 73.035 256 72.7762 256 72.5C256 71.6716 256.672 71 257.5 71C258.328 71 259 71.6716 259 72.5C259 73.3284 258.328 74 257.5 74C257.269 74 257.051 73.9479 256.855 73.8549L252.887 78.6792V87.8321L275.541 66.2234C275.22 65.7467 275.032 65.1723 275.032 64.5541C275.032 62.9034 276.37 61.5652 278.021 61.5652C279.672 61.5652 281.01 62.9034 281.01 64.5541C281.01 66.2048 279.672 67.543 278.021 67.543C277.35 67.543 276.73 67.3216 276.231 66.9477ZM234.627 67.1103L231 71.1901V102.5V102.697L230.866 102.841L217.366 117.341L217.218 117.5H217H210.207L205 122.707V134V134.161L204.906 134.292L193.798 149.747C193.926 149.968 194 150.226 194 150.5C194 151.328 193.328 152 192.5 152C191.672 152 191 151.328 191 150.5C191 149.672 191.672 149 192.5 149C192.688 149 192.867 149.034 193.033 149.097L204 133.839V122.5V122.293L204.146 122.146L209.646 116.646L209.793 116.5H210H216.782L230 102.303V71V70.8099L230.126 70.6678L233.87 66.4557C233.444 65.939 233.188 65.2765 233.188 64.5541C233.188 62.9034 234.526 61.5652 236.176 61.5652C237.827 61.5652 239.165 62.9034 239.165 64.5541C239.165 66.2048 237.827 67.543 236.176 67.543C235.609 67.543 235.078 67.3849 234.627 67.1103ZM208 78.9146V101.5V101.707L207.854 101.854L185.971 123.736L183.131 143.139C183.644 143.377 184 143.897 184 144.5C184 145.328 183.328 146 182.5 146C181.672 146 181 145.328 181 144.5C181 143.798 181.483 143.208 182.134 143.045L185.005 123.428L185.029 123.264L185.146 123.146L207 101.293V78.9146C206.417 78.7087 206 78.1531 206 77.5C206 76.6716 206.672 76 207.5 76C208.328 76 209 76.6716 209 77.5C209 78.1531 208.583 78.7087 208 78.9146ZM88.7215 104.5H94H94.2093L94.3562 104.649L107.856 118.354L116.52 127.149L127.209 138H136.293L128.147 129.854C127.951 129.948 127.732 130 127.5 130C126.672 130 126 129.328 126 128.5C126 127.672 126.672 127 127.5 127C128.328 127 129 127.672 129 128.5C129 128.732 128.948 128.951 128.854 129.147L137.707 138H145.5H145.653L145.78 138.086L157.78 146.186L157.8 146.199L157.82 146.215L163.792 151.177C164.003 151.064 164.244 151 164.5 151C165.328 151 166 151.672 166 152.5C166 153.328 165.328 154 164.5 154C163.672 154 163 153.328 163 152.5C163 152.462 163.001 152.424 163.004 152.386L138.442 149.497L138.302 149.48L138.191 149.393L131.191 143.893L131.278 143.783C131.051 143.921 130.785 144 130.5 144C129.672 144 129 143.328 129 142.5C129 141.672 129.672 141 130.5 141C131.328 141 132 141.672 132 142.5C132 142.73 131.948 142.948 131.855 143.143L138.698 148.52L162.382 151.306L157.295 147.08L143.443 145.497L143.291 145.479L143.175 145.38L140.198 142.828C139.989 142.938 139.752 143 139.5 143C138.672 143 138 142.328 138 141.5C138 140.672 138.672 140 139.5 140C140.328 140 141 140.672 141 141.5C141 141.711 140.956 141.912 140.878 142.094L143.709 144.521L155.527 145.871L145.347 139H137.5H127H126.791L126.644 138.851L115.955 128H89.5H89.2929L89.1464 127.854L84.1467 122.854C83.9509 122.948 83.7316 123 83.5 123C82.6716 123 82 122.328 82 121.5C82 120.672 82.6716 120 83.5 120C84.3284 120 85 120.672 85 121.5C85 121.732 84.9475 121.951 84.8538 122.147L89.7071 127H114.97L107.291 119.205H92.5H92.2856L92.1377 119.049L88.1465 114.854C87.9508 114.948 87.7315 115 87.5 115C86.6716 115 86 114.328 86 113.5C86 112.672 86.6716 112 87.5 112C88.3284 112 89 112.672 89 113.5C89 113.744 88.9417 113.974 88.8383 114.178L88.8623 114.155L92.7144 118.205H106.306L93.7907 105.5H88.5165C88.08 106.61 86.9987 107.395 85.734 107.395C84.0833 107.395 82.7451 106.057 82.7451 104.406C82.7451 102.756 84.0833 101.417 85.734 101.417C87.3848 101.417 88.7229 102.756 88.7229 104.406C88.7229 104.438 88.7225 104.469 88.7215 104.5ZM268.782 105H269H274.063C274.259 103.54 275.51 102.414 277.025 102.414C278.675 102.414 280.013 103.752 280.013 105.403C280.013 107.053 278.675 108.392 277.025 108.392C275.578 108.392 274.372 107.365 274.095 106H269.218L263 112.696V117.5V117.727L262.829 117.876L255.831 124H263.5H263.66L263.791 124.093L270.66 129H280.804L287.134 123.121C287.048 122.932 287 122.722 287 122.5C287 121.672 287.672 121 288.5 121C289.328 121 290 121.672 290 122.5C290 123.328 289.328 124 288.5 124C288.259 124 288.03 123.943 287.828 123.842L281.34 129.866L281.196 130H281H270.5H270.34L270.209 129.907L263.34 125H254.686L217.827 156.878L217.691 156.996L217.512 157L196.922 157.479C196.722 158.072 196.161 158.5 195.5 158.5C194.672 158.5 194 157.828 194 157C194 156.172 194.672 155.5 195.5 155.5C196.145 155.5 196.695 155.907 196.907 156.479L217.309 156.004L254.171 124.124L254.173 124.122L262 117.273V112.5V112.304L262.134 112.16L268.634 105.16L268.782 105ZM72.7575 122.978C72.6738 122.992 72.5878 123 72.5 123C71.6716 123 71 122.328 71 121.5C71 120.672 71.6716 120 72.5 120C73.3284 120 74 120.672 74 121.5C74 121.869 73.8664 122.208 73.6449 122.469L82.2227 132H111H111.197L111.341 132.134L133.214 152.516L162.114 154.924C162.34 154.382 162.875 154 163.5 154C164.328 154 165 154.672 165 155.5C165 156.328 164.328 157 163.5 157C162.819 157 162.243 156.546 162.061 155.923L132.958 153.498L132.786 153.484L132.659 153.366L110.803 133H82H81.7773L81.6284 132.834L72.7575 122.978ZM51.8557 123.5H60.5H60.7123L60.8597 123.653L74.7123 138H106.5H106.688L106.829 138.124L124.544 153.624L130.688 159H146.25H161.085C161.291 158.417 161.847 158 162.5 158C163.328 158 164 158.672 164 159.5C164 160.328 163.328 161 162.5 161C161.847 161 161.291 160.583 161.085 160H146.452L139.847 166.36L139.702 166.5H139.5H121H120.798L120.652 166.359L114.198 160.107L93.7254 170.446L93.6191 170.5H93.5H74.6775L66.855 176.856C66.948 177.051 67 177.269 67 177.5C67 178.328 66.3284 179 65.5 179C64.6716 179 64 178.328 64 177.5C64 176.672 64.6716 176 65.5 176C65.7786 176 66.0394 176.076 66.263 176.208L66.1847 176.112L74.1847 169.612L74.3225 169.5H74.5H93.3809L113.438 159.37L109.546 155.6L98.2135 160.952L98.1121 161H98H88.9146C88.7087 161.583 88.1531 162 87.5 162C86.6716 162 86 161.328 86 160.5C86 159.672 86.6716 159 87.5 159C88.1531 159 88.7087 159.417 88.9146 160H97.8878L108.778 154.856L104.798 151H91.6667L79.8 159.9L79.6667 160H79.5H73.6712C73.3225 161.264 72.1645 162.192 70.7897 162.192C69.139 162.192 67.8008 160.854 67.8008 159.203C67.8008 157.552 69.139 156.214 70.7897 156.214C72.3722 156.214 73.6674 157.444 73.7718 159H79.3333L91.2 150.1L91.3333 150H91.5H105H105.202L105.348 150.141L109.993 154.641L114.638 159.141L121.202 165.5H139.298L145.01 160H130.5H130.312L130.171 159.876L124.026 154.5H116.5H116.306L116.163 154.369L104.806 144H88.6716L79.8555 150.857C79.9482 151.052 80 151.27 80 151.5C80 152.328 79.3284 153 78.5 153C77.6716 153 77 152.328 77 151.5C77 150.672 77.6716 150 78.5 150C78.7865 150 79.0543 150.08 79.282 150.22L79.193 150.105L88.193 143.105L88.3284 143H88.5H105H105.194L105.337 143.131L116.694 153.5H122.884L106.312 139H74.5H74.2877L74.1403 138.847L60.2877 124.5H51.6251C51.1713 125.573 50.1091 126.325 48.8712 126.325C47.2205 126.325 45.8823 124.987 45.8823 123.336C45.8823 121.685 47.2205 120.347 48.8712 120.347C50.522 120.347 51.8602 121.685 51.8602 123.336C51.8602 123.391 51.8587 123.446 51.8557 123.5ZM302.238 126.5H302.5H309.908C309.905 126.442 309.903 126.384 309.903 126.325C309.903 124.674 311.241 123.336 312.892 123.336C314.542 123.336 315.881 124.674 315.881 126.325C315.881 127.976 314.542 129.314 312.892 129.314C311.658 129.314 310.599 128.567 310.143 127.5H302.762L298.411 133.785L298.262 134H298H290.212L275.859 148.848L275.712 149H275.5H266H265.804L265.66 148.867L252.479 136.662L250.504 138.276L266.198 153H275.301L284.157 144.636L284.301 144.5H284.5H293.779L298.63 139.164L299.37 139.836L294.37 145.336L294.221 145.5H294H284.699L275.843 153.864L275.699 154H275.5H266H265.802L265.658 153.865L249.723 138.914L247.736 140.537L262.707 155.5H285.5H285.685L285.825 155.62L289.024 158.362C289.323 158.261 289.644 158.207 289.977 158.207C291.628 158.207 292.966 159.545 292.966 161.196C292.966 162.847 291.628 164.185 289.977 164.185C288.326 164.185 286.988 162.847 286.988 161.196C286.988 160.261 287.418 159.426 288.09 158.878L285.315 156.5H262.5H262.293L262.147 156.354L246.958 141.173L245.287 142.538L264.707 162H276.085C276.291 161.417 276.847 161 277.5 161C278.328 161 279 161.672 279 162.5C279 163.328 278.328 164 277.5 164C276.847 164 276.291 163.583 276.085 163H264.5H264.293L264.146 162.853L244.509 143.174L217.316 165.387L217.163 165.513L216.965 165.499L196.391 164.063C196.168 164.613 195.629 165 195 165C194.172 165 193.5 164.328 193.5 163.5C193.5 162.672 194.172 162 195 162C195.677 162 196.249 162.448 196.436 163.064L216.837 164.487L244.227 142.113L246.675 140.113L249.429 137.863L252.184 135.613L252.322 135.5H252.5H262.5H262.69L262.832 135.626L271.529 143.357C271.791 143.134 272.13 143 272.5 143C273.328 143 274 143.672 274 144.5C274 145.328 273.328 146 272.5 146C271.672 146 271 145.328 271 144.5C271 144.413 271.007 144.327 271.022 144.244L262.31 136.5H253.776L266.196 148H275.288L289.641 133.152L289.788 133H290H297.738L302.089 126.715L302.238 126.5ZM253.314 129H253.5H262H262.151L262.277 129.084L269.651 134H282.33L288.006 129.634C288.002 129.59 288 129.545 288 129.5C288 128.672 288.672 128 289.5 128C290.328 128 291 128.672 291 129.5C291 130.328 290.328 131 289.5 131C289.086 131 288.712 130.832 288.44 130.561L282.805 134.896L282.67 135H282.5H269.5H269.349L269.223 134.916L261.849 130H253.686L217.826 160.879L217.686 161H217.5H196.915C196.709 161.583 196.153 162 195.5 162C194.672 162 194 161.328 194 160.5C194 159.672 194.672 159 195.5 159C196.153 159 196.709 159.417 196.915 160H217.314L253.174 129.121L253.314 129ZM239.822 155H240H250.5H250.712L250.86 155.153L264.712 169.5H277H277.18L277.319 169.615L291.518 181.366C291.781 181.138 292.125 181 292.5 181C293.328 181 294 181.672 294 182.5C294 183.328 293.328 184 292.5 184C291.672 184 291 183.328 291 182.5C291 182.416 291.007 182.333 291.02 182.252L276.82 170.5H264.5H264.288L264.14 170.347L250.288 156H240.178L234.817 160.387L234.678 160.5H234.5H229.675L217.312 170.39L217.145 170.524L216.932 170.495L195.542 167.579C195.273 167.839 194.905 168 194.5 168C193.672 168 193 167.328 193 166.5C193 165.672 193.672 165 194.5 165C195.328 165 196 165.672 196 166.5C196 166.544 195.998 166.588 195.994 166.631L216.855 169.476L229.188 159.61L229.325 159.5H229.5H234.322L239.683 155.113L239.822 155ZM162.145 164.145C162.387 164.651 162.903 165 163.5 165C164.328 165 165 164.328 165 163.5C165 162.672 164.328 162 163.5 162C162.801 162 162.215 162.477 162.048 163.124L141.419 170H108.5H108.376L108.266 170.058L91.3758 179H74H73.8099L73.6678 179.126L60.2816 191.025L50.3384 192.381C49.7994 191.598 48.897 191.085 47.8747 191.085C46.2239 191.085 44.8857 192.423 44.8857 194.074C44.8857 195.725 46.2239 197.063 47.8747 197.063C49.5254 197.063 50.8636 195.725 50.8636 194.074C50.8636 193.818 50.8313 193.569 50.7706 193.331L60.5676 191.995L60.7184 191.975L60.8322 191.874L74.1901 180H91.5H91.6242L91.7339 179.942L108.624 171H141.5H141.581L141.658 170.974L162.145 164.145ZM234.332 165H234.5H249V165.5V166H234.668L221.486 176H230.793L235.646 171.146L235.793 171H236H255.085C255.291 170.417 255.847 170 256.5 170C257.328 170 258 170.672 258 171.5C258 172.328 257.328 173 256.5 173C255.847 173 255.291 172.583 255.085 172H236.207L232.207 176H263H263.167L263.3 176.1L265.167 177.5H275H275.157L275.286 177.59L286.494 185.387C286.76 185.146 287.113 185 287.5 185C288.328 185 289 185.672 289 186.5C289 187.328 288.328 188 287.5 188C286.672 188 286 187.328 286 186.5C286 186.423 286.006 186.347 286.017 186.273L274.843 178.5H266.651L293.651 196.5H308.96C309.223 195.118 310.437 194.074 311.896 194.074C313.546 194.074 314.885 195.412 314.885 197.063C314.885 198.713 313.546 200.052 311.896 200.052C310.393 200.052 309.15 198.943 308.939 197.5H293.5H293.349L293.223 197.416L264.723 178.416L264.711 178.408L264.7 178.4L262.833 177H231H220H216H215.924L215.851 176.977L194.702 170.398C194.428 170.763 193.992 171 193.5 171C192.672 171 192 170.328 192 169.5C192 168.672 192.672 168 193.5 168C194.309 168 194.969 168.641 194.999 169.443L216.076 176H219.832L234.198 165.102L234.332 165ZM249 165.5C249 164.672 249.672 164 250.5 164C251.328 164 252 164.672 252 165.5C252 166.328 251.328 167 250.5 167C249.672 167 249 166.328 249 165.5ZM163.527 168.641C163.789 168.865 164.129 169 164.5 169C165.328 169 166 168.328 166 167.5C166 166.672 165.328 166 164.5 166C163.672 166 163 166.672 163 167.5C163 167.594 163.009 167.687 163.025 167.776L145.366 178H108.5H108.36L108.241 178.072L89.3605 189.5H75.5H75.3055L75.1621 189.631L69.1621 195.131L69.2005 195.173C68.9914 195.063 68.753 195 68.5 195C67.6716 195 67 195.672 67 196.5C67 197.328 67.6716 198 68.5 198C69.3284 198 70 197.328 70 196.5C70 196.269 69.9476 196.049 69.854 195.854L75.6945 190.5H89.5H89.6395L89.7589 190.428L108.64 179H145.5H145.634L145.751 178.933L163.527 168.641ZM165.78 171.816C165.994 171.933 166.239 172 166.5 172C167.328 172 168 171.328 168 170.5C168 169.672 167.328 169 166.5 169C165.672 169 165 169.672 165 170.5C165 170.702 165.04 170.894 165.112 171.07L148.325 184.5H144H109H108.854L108.73 184.579L89.3535 197H80.9146C80.7087 196.417 80.1531 196 79.5 196C78.6716 196 78 196.672 78 197.5C78 198.328 78.6716 199 79.5 199C80.1531 199 80.7087 198.583 80.9146 198H89.5H89.6465L89.7698 197.921L109.147 185.5H143.018L139.745 190H121.915C121.709 189.417 121.153 189 120.5 189C119.672 189 119 189.672 119 190.5C119 191.328 119.672 192 120.5 192C121.153 192 121.709 191.583 121.915 191H140H140.255L140.404 190.794L144.255 185.5H148.5H148.675L148.812 185.39L165.78 171.816ZM192.77 172.798C192.916 172.567 193 172.293 193 172C193 171.172 192.328 170.5 191.5 170.5C190.672 170.5 190 171.172 190 172C190 172.828 190.672 173.5 191.5 173.5C191.668 173.5 191.829 173.472 191.98 173.422L195.574 179.262L195.586 179.282L195.6 179.3L200.092 185.289L204.084 191.277L204.232 191.5H204.5H243.79L268.643 216.85L268.79 217H269H272.043C272.05 218.646 273.385 219.978 275.032 219.978C276.683 219.978 278.021 218.64 278.021 216.989C278.021 215.338 276.683 214 275.032 214C273.728 214 272.619 214.835 272.211 216H269.21L244.357 190.65L244.21 190.5H244H204.768L201.434 185.5H209.412L214.829 187.47L214.912 187.5H215H248.305L267.161 204.868L267.305 205H267.5H282V204.5C282 205.328 282.672 206 283.5 206C284.328 206 285 205.328 285 204.5C285 203.672 284.328 203 283.5 203C282.672 203 282 203.672 282 204.5V204H267.695L248.839 186.632L248.695 186.5H248.5H215.088L209.671 184.53L209.588 184.5H209.5H200.75L197 179.5H210.407L216.821 181.967L216.907 182H217H251.803L267.023 196.238C267.008 196.323 267 196.411 267 196.5C267 197.328 267.672 198 268.5 198C269.328 198 270 197.328 270 196.5C270 195.672 269.328 195 268.5 195C268.133 195 267.798 195.132 267.537 195.35L252.342 181.135L252.197 181H252H217.093L210.679 178.533L210.593 178.5H210.5H196.279L192.77 172.798ZM167.837 174.846C168.037 174.945 168.262 175 168.5 175C169.328 175 170 174.328 170 173.5C170 172.672 169.328 172 168.5 172C167.672 172 167 172.672 167 173.5C167 173.725 167.05 173.939 167.139 174.131L146.3 194H109H108.834L108.701 194.099L85.356 211.484C84.8904 211.185 84.3364 211.011 83.7419 211.011C82.0911 211.011 80.7529 212.349 80.7529 214C80.7529 215.651 82.0911 216.989 83.7419 216.989C85.3926 216.989 86.7308 215.651 86.7308 214C86.7308 213.311 86.4979 212.677 86.1066 212.172L109.166 195H146.5H146.7L146.845 194.862L167.837 174.846ZM189.946 175.164C190.284 174.889 190.5 174.47 190.5 174C190.5 173.172 189.828 172.5 189 172.5C188.172 172.5 187.5 173.172 187.5 174C187.5 174.824 188.165 175.493 188.988 175.5L200.064 195.245L200.207 195.5H200.5H207.778L217 205.693V238.5V238.693L217.13 238.836L231.827 255.003C231.431 255.51 231.195 256.148 231.195 256.841C231.195 258.492 232.533 259.83 234.184 259.83C235.834 259.83 237.173 258.492 237.173 256.841C237.173 255.19 235.834 253.852 234.184 253.852C233.587 253.852 233.031 254.027 232.565 254.328L218 238.307V205.5V205.307L217.871 205.165L209.127 195.5H216.261L224.5 205.677V236.5V236.717L224.659 236.866L232.159 243.866L232.303 244H232.5H245.768L251.027 250.215C251.009 250.307 251 250.403 251 250.5C251 251.328 251.672 252 252.5 252C253.328 252 254 251.328 254 250.5C254 249.672 253.328 249 252.5 249C252.152 249 251.832 249.118 251.577 249.317L246.382 243.177L246.232 243H246H232.697L225.5 236.283V205.5V205.323L225.389 205.185L217.548 195.5H224.743L232 205.66V210V232.5V232.75L232.2 232.9L240.2 238.9L240.333 239H240.5H257.289L273.737 255.918C273.302 256.438 273.04 257.107 273.04 257.837C273.04 259.488 274.378 260.826 276.029 260.826C277.68 260.826 279.018 259.488 279.018 257.837C279.018 256.187 277.68 254.848 276.029 254.848C275.47 254.848 274.947 255.002 274.5 255.269L257.858 238.151L257.711 238H257.5H240.667L233 232.25V210.5H238.266L243 216.181V225.085C242.417 225.291 242 225.847 242 226.5C242 227.328 242.672 228 243.5 228C244.328 228 245 227.328 245 226.5C245 225.847 244.583 225.291 244 225.085V216V215.819L243.884 215.68L238.884 209.68L238.734 209.5H238.5H233V205.5V205.34L232.907 205.209L225.972 195.5H238.287L251 208.702V220.5V220.724L251.167 220.873L260.129 228.891C260.046 229.077 260 229.283 260 229.5C260 230.328 260.672 231 261.5 231C262.328 231 263 230.328 263 229.5C263 228.672 262.328 228 261.5 228C261.254 228 261.021 228.059 260.816 228.165L252 220.276V208.5V208.298L251.86 208.153L238.86 194.653L238.713 194.5H238.5H225H216.5H208H200.793L189.946 175.164ZM186.735 176.352C186.902 176.11 187 175.816 187 175.5C187 174.672 186.328 174 185.5 174C184.672 174 184 174.672 184 175.5C184 176.328 184.672 177 185.5 177C185.643 177 185.781 176.98 185.912 176.943L196.5 198.118V202.5V211V211.202L196.641 211.348L212 227.202V241.5V241.682L212.117 241.822L222.175 253.796C222.063 254.006 222 254.245 222 254.5C222 255.328 222.672 256 223.5 256C224.328 256 225 255.328 225 254.5C225 253.672 224.328 253 223.5 253C223.292 253 223.093 253.042 222.913 253.119L213 241.318V227V226.798L212.859 226.652L198.181 211.5H203.802L212.023 219.238C212.008 219.323 212 219.41 212 219.5C212 220.328 212.672 221 213.5 221C214.328 221 215 220.328 215 219.5C215 218.672 214.328 218 213.5 218C213.134 218 212.798 218.131 212.538 218.349L204.343 210.636L204.198 210.5H204H197.5V203H203.783L210.158 209.83C210.057 210.032 210 210.259 210 210.5C210 211.328 210.672 212 211.5 212C212.328 212 213 211.328 213 210.5C213 209.672 212.328 209 211.5 209C211.278 209 211.067 209.048 210.877 209.135L204.366 202.159L204.217 202H204H197.5V198V197.882L197.447 197.776L186.735 176.352ZM170.341 176.452L167.646 179.146L161.146 185.646L148.293 198.5H113.5H113.331L113.196 198.603L96.1963 211.603L96 211.753V212V221.085C95.4174 221.291 95 221.847 95 222.5C95 223.328 95.6716 224 96.5 224C97.3284 224 98 223.328 98 222.5C98 221.847 97.5826 221.291 97 221.085V212.247L113.669 199.5H148.5H148.707L148.854 199.354L161 187.207V194.787L148.299 207H131H125H120.5H113.5H113.316L113.176 207.119L103.176 215.619L103 215.769V216V226.793L91.6464 238.146L91.5 238.293V238.5V246.293L83.9598 253.833C83.4131 253.233 82.6252 252.856 81.7492 252.856C80.0984 252.856 78.7603 254.194 78.7603 255.845C78.7603 257.496 80.0984 258.834 81.7492 258.834C83.3999 258.834 84.7381 257.496 84.7381 255.845C84.7381 255.438 84.6569 255.051 84.5099 254.697L92.3536 246.854L92.5 246.707V246.5V238.707L103.854 227.354L104 227.207V227V216.231L113.684 208H119.197L110.166 216.128L110 216.277V216.5V223.085C109.417 223.291 109 223.847 109 224.5C109 225.328 109.672 226 110.5 226C111.328 226 112 225.328 112 224.5C112 223.847 111.583 223.291 111 223.085V216.723L120.692 208H124.5V223.276L115.309 231.5H108H107.812L107.671 231.624L100.191 238.168C99.9843 238.061 99.7493 238 99.5 238C98.6716 238 98 238.672 98 239.5C98 240.328 98.6716 241 99.5 241C100.328 241 101 240.328 101 239.5C101 239.286 100.955 239.083 100.875 238.899L108.188 232.5H115.5H115.691L115.833 232.373L125.333 223.873L125.5 223.724V223.5V208H130.5V226.818L122.767 236H114H113.784L113.636 236.157L106.126 244.137C105.936 244.049 105.723 244 105.5 244C104.672 244 104 244.672 104 245.5C104 246.328 104.672 247 105.5 247C106.328 247 107 246.328 107 245.5C107 245.26 106.944 245.034 106.844 244.833L114.216 237H123H123.233L123.382 236.822L131.382 227.322L131.5 227.182V227V208H148.5H148.701L148.847 207.86L161.847 195.36L162 195.213V195V186.207L167.5 180.707V196.783L135.658 226.635L135.5 226.783V227V244.271L125.704 252.731C125.163 252.193 124.417 251.86 123.594 251.86C121.943 251.86 120.605 253.198 120.605 254.849C120.605 256.499 121.943 257.837 123.594 257.837C125.245 257.837 126.583 256.499 126.583 254.849C126.583 254.383 126.476 253.942 126.287 253.55L136.327 244.878L136.5 244.729V244.5V227.217L168.342 197.365L168.5 197.217V197V179.707L171.231 176.976C171.318 176.992 171.408 177 171.5 177C172.328 177 173 176.328 173 175.5C173 174.672 172.328 174 171.5 174C170.672 174 170 174.672 170 175.5C170 175.861 170.128 176.193 170.341 176.452ZM183.32 177.756C183.73 177.488 184 177.026 184 176.5C184 175.672 183.328 175 182.5 175C181.672 175 181 175.672 181 176.5C181 177.274 181.587 177.912 182.34 177.992L190.417 199.371L184.651 205.003L176.901 212.573L169.151 220.142L169 220.289V220.5V233V245.5V245.682L169.117 245.822L179.5 258.182V267.803C179.462 267.801 179.425 267.8 179.387 267.8C177.736 267.8 176.398 269.139 176.398 270.789C176.398 272.44 177.736 273.778 179.387 273.778C181.038 273.778 182.376 272.44 182.376 270.789C182.376 269.532 181.599 268.456 180.5 268.015V258V257.818L180.383 257.678L170 245.318V234.174L182.146 245.853C182.052 246.049 182 246.268 182 246.5C182 247.328 182.672 248 183.5 248C184.328 248 185 247.328 185 246.5C185 245.672 184.328 245 183.5 245C183.259 245 183.031 245.057 182.829 245.158L182.847 245.14L170 232.787V220.711L176.75 214.118V228.5V228.721L176.913 228.869L191 241.721V259.085C190.417 259.291 190 259.847 190 260.5C190 261.328 190.672 262 191.5 262C192.328 262 193 261.328 193 260.5C193 259.847 192.583 259.291 192 259.085V241.5V241.279L191.837 241.131L177.75 228.279V213.141L184.5 206.548V223.5V223.712L184.653 223.86L199 237.712V263.5V263.707L199.146 263.854L213.5 278.207V289.816C212.216 290.152 211.269 291.319 211.269 292.708C211.269 294.359 212.607 295.697 214.258 295.697C215.909 295.697 217.247 294.359 217.247 292.708C217.247 291.139 216.038 289.852 214.5 289.729V278V277.793L214.354 277.646L200 263.293V237.5V237.288L199.847 237.14L185.5 223.288V205.571L190.5 200.687V218V218.202L190.641 218.348L206 234.202V256V256.214L206.154 256.361L217.139 266.868C217.05 267.06 217 267.274 217 267.5C217 268.328 217.672 269 218.5 269C219.328 269 220 268.328 220 267.5C220 266.672 219.328 266 218.5 266C218.263 266 218.038 266.055 217.838 266.153L207 255.786V234V233.798L206.859 233.652L191.5 217.798V199.5V199.409L191.468 199.323L183.32 177.756ZM179.525 177.595C179.818 177.321 180 176.932 180 176.5C180 175.672 179.328 175 178.5 175C177.672 175 177 175.672 177 176.5C177 177.328 177.672 178 178.5 178C178.528 178 178.555 177.999 178.582 177.998L182.461 199.332L158.646 223.146L158.5 223.293V223.5V236.5V261.793L143.646 276.646L143.5 276.793V277V288.723C141.859 288.734 140.531 290.068 140.531 291.712C140.531 293.362 141.869 294.701 143.52 294.701C145.171 294.701 146.509 293.362 146.509 291.712C146.509 290.404 145.669 289.293 144.5 288.887V277.207L159.354 262.354L159.5 262.207V262V237.865L164 243.183V259H164.5C163.672 259 163 259.672 163 260.5C163 261.328 163.672 262 164.5 262C165.328 262 166 261.328 166 260.5C166 259.672 165.328 259 164.5 259H165V243V242.817L164.882 242.677L159.5 236.317V223.707L183.354 199.854L183.539 199.668L183.492 199.411L179.525 177.595ZM175 177.915V198V198.207L174.854 198.354L153.5 219.707V255V255.221L153.336 255.37L142.869 264.886C142.953 265.073 143 265.281 143 265.5C143 266.328 142.328 267 141.5 267C140.672 267 140 266.328 140 265.5C140 264.672 140.672 264 141.5 264C141.744 264 141.975 264.058 142.179 264.162L152.5 254.779V219.5V219.293L152.646 219.146L174 197.793V177.915C173.417 177.709 173 177.153 173 176.5C173 175.672 173.672 175 174.5 175C175.328 175 176 175.672 176 176.5C176 177.153 175.583 177.709 175 177.915ZM217.246 32.6723C218.897 32.6723 220.235 31.3341 220.235 29.6834C220.235 28.0327 218.897 26.6945 217.246 26.6945C215.596 26.6945 214.257 28.0327 214.257 29.6834C214.257 31.3341 215.596 32.6723 217.246 32.6723ZM302 138.5C302 139.328 301.328 140 300.5 140C299.672 140 299 139.328 299 138.5C299 137.672 299.672 137 300.5 137C301.328 137 302 137.672 302 138.5Z" fill="#181818"/>
</svg>
