<svg width="260" height="260" viewBox="0 0 260 260" fill="none" xmlns="http://www.w3.org/2000/svg">
<path fill-rule="evenodd" clip-rule="evenodd" d="M0 0H260V260H0V0ZM73.3536 71.6464L79.8536 78.1464L80 78.2929V78.5V95.5V96H79.5H74.5H74.238L74.0889 95.7846L69.5889 89.2846L70.4111 88.7154L74.762 95H79V78.7071L72.6464 72.3536L73.3536 71.6464ZM81.5 80V98H72.7591L67.0441 89.9037C67.6367 89.2767 68 88.4308 68 87.5C68 85.567 66.433 84 64.5 84C62.567 84 61 85.567 61 87.5C61 89.433 62.567 91 64.5 91C65.1414 91 65.7425 90.8275 66.2595 90.5263L72.0915 98.7883L72.2409 99H72.5H82H82.5V98.5V80H81.5ZM85.5 77.7071L76.1464 68.3536L76.8536 67.6464L86.3536 77.1464L86.5 77.2929V77.5V88.7929L91.321 93.6139C92.2348 92.6217 93.5448 92 95 92C97.7614 92 100 94.2386 100 97C100 99.7614 97.7614 102 95 102C92.2386 102 90 99.7614 90 97C90 95.8751 90.3715 94.8369 90.9985 94.0015L90.6464 94.3536L85.6464 89.3536L85.5 89.2071V89V77.7071ZM104 91V100.822L99.613 106.183L99.5 106.322V106.5V118H93.5V113.969C95.4732 113.723 97 112.04 97 110C97 107.791 95.2091 106 93 106C90.7909 106 89 107.791 89 110C89 112.04 90.5268 113.723 92.5 113.969V118.5V119H93H100H100.5V118.5V106.678L104.887 101.317L105 101.178V101V91H104ZM183.66 78.4853C183.24 77.7532 183 76.9046 183 76C183 73.2386 185.239 71 188 71C190.761 71 193 73.2386 193 76C193 78.7614 190.761 81 188 81C186.502 81 185.159 80.3416 184.242 79.2985L181.5 81.2573V92V92.2169L181.342 92.3651L166 106.717V117.5V118H165.5H158.5H158V117.5V108.158L154.59 103.287L154.5 103.158V103V91H155.5V102.842L158.91 107.713L159 107.842V108V117H165V106.5V106.283L165.158 106.135L180.5 91.7831V81V80.7427L180.709 80.5931L183.66 78.4853ZM96.2054 60.304C99.0226 60.2663 101.541 59.0213 103.277 57.0668L112.731 68.2593L113.119 97.3555L121.712 105.038V126.939H73.8688L68.8093 122.415C71.5295 120.678 73.3162 117.611 73.27 114.142C73.199 108.812 68.8279 104.548 63.5069 104.619C58.1859 104.69 53.9299 109.069 54.0009 114.4C54.0719 119.73 58.443 123.994 63.764 123.923C65.2494 123.903 66.6518 123.547 67.9003 122.929L73.497 127.932H122.694V104.59L114.101 96.908L113.715 67.892L103.906 56.2796C105.067 54.6611 105.74 52.6695 105.711 50.5237C105.64 45.1932 101.269 40.9298 95.9484 41.0009C90.6274 41.072 86.3714 45.4508 86.4424 50.7812C86.5134 56.1116 90.8844 60.3751 96.2054 60.304ZM96.1923 59.3155C100.966 59.2517 104.787 55.323 104.723 50.5369C104.659 45.7507 100.735 41.9256 95.9615 41.9894C91.1881 42.0532 87.3671 45.9818 87.4309 50.768C87.4946 55.5541 91.4189 59.3793 96.1923 59.3155ZM100.739 73.9009C100.523 76.0945 98.6912 77.8219 96.4394 77.852C94.0207 77.8843 92.0339 75.9463 92.0016 73.5234C91.9693 71.1005 93.9039 69.1101 96.3225 69.0778C98.5743 69.0477 100.452 70.7255 100.726 72.9124L106.247 72.8387L110.069 77.4966L110.442 105.5L117.519 110.671L117.693 123.696L107.945 123.826L107.868 118.033C106.164 117.816 104.836 116.369 104.813 114.599C104.787 112.66 106.335 111.068 108.27 111.042C110.205 111.016 111.794 112.567 111.82 114.505C111.843 116.275 110.555 117.757 108.857 118.02L108.921 122.825L116.691 122.721L116.537 111.178L109.46 106.007L109.085 77.8561L105.784 73.8335L100.739 73.9009ZM99.7718 73.4196C99.7968 75.2982 98.2972 76.8385 96.4262 76.8635C94.5552 76.8885 93.0151 75.3889 92.9901 73.5102C92.9651 71.6316 94.4646 70.0913 96.3357 70.0663C98.2067 70.0413 99.7467 71.5409 99.7718 73.4196ZM108.843 117.018C109.992 116.772 110.848 115.742 110.831 114.518C110.813 113.124 109.67 112.012 108.283 112.031C106.895 112.049 105.783 113.191 105.801 114.585C105.818 115.81 106.701 116.816 107.855 117.031L108.843 117.018ZM100.936 86.5674C101.725 86.5568 102.45 86.2856 103.03 85.8366L106.61 89.329L106.78 102.107L102.471 107.43L102.654 121.153L87.8767 121.351L87.787 114.621L84.5453 111.459C85.1319 110.702 85.4758 109.747 85.462 108.714C85.4297 106.291 83.4429 104.353 81.0243 104.385C78.6056 104.417 76.6711 106.408 76.7034 108.831C76.7356 111.254 78.7225 113.192 81.1411 113.159C82.1725 113.146 83.1159 112.776 83.8562 112.168L86.804 115.043L86.9013 122.352L103.655 122.129L103.464 107.774L107.773 102.451L107.593 88.9068L103.719 85.1277C104.151 84.535 104.403 83.8017 104.392 83.0109C104.366 81.0725 102.777 79.5221 100.842 79.548C98.9071 79.5738 97.3595 81.1662 97.3853 83.1045C97.4111 85.0429 99.0006 86.5932 100.936 86.5674ZM84.4735 108.727C84.4985 110.606 82.999 112.146 81.1279 112.171C79.2569 112.196 77.7169 110.696 77.6919 108.818C77.6668 106.939 79.1664 105.399 81.0374 105.374C82.9085 105.349 84.4485 106.848 84.4735 108.727ZM153.938 58.7097C155.632 60.6207 158.088 61.8381 160.836 61.8749C166.025 61.9445 170.289 57.7758 170.358 52.5638C170.427 47.3518 166.276 43.0704 161.086 43.0009C155.897 42.9313 151.633 47.1 151.564 52.312C151.536 54.4101 152.192 56.3575 153.325 57.94L143.758 69.2943L143.381 97.6653L135 105.177V128H182.984L188.443 123.108C189.66 123.712 191.028 124.06 192.477 124.079C197.667 124.149 201.93 119.98 201.999 114.768C202.068 109.556 197.917 105.275 192.728 105.205C187.538 105.136 183.275 109.304 183.205 114.516C183.16 117.909 184.903 120.907 187.556 122.606L182.621 127.028H135.958V105.614L144.34 98.1029L144.717 69.6535L153.938 58.7097ZM152.528 52.3249C152.466 57.0047 156.193 60.846 160.848 60.9084C165.504 60.9708 169.332 57.2306 169.394 52.5509C169.456 47.8711 165.729 44.0298 161.073 43.9674C156.418 43.905 152.59 47.6451 152.528 52.3249ZM160.607 79.0329C158.411 79.0035 156.624 77.3145 156.413 75.1697L151.493 75.1037L148.273 79.0369L147.908 106.562L141.005 111.618L140.855 122.904L148.434 123.006L148.496 118.308C146.84 118.051 145.583 116.602 145.606 114.871C145.632 112.976 147.182 111.46 149.069 111.485C150.956 111.511 152.466 113.068 152.44 114.963C152.417 116.694 151.122 118.108 149.46 118.321L149.385 123.985L139.878 123.858L140.048 111.123L146.95 106.067L147.314 78.6854L151.042 74.131L156.426 74.2031C156.694 72.0648 158.525 70.4243 160.721 70.4538C163.08 70.4854 164.967 72.4315 164.936 74.8005C164.904 77.1696 162.966 79.0645 160.607 79.0329ZM160.62 78.0664C158.795 78.0419 157.333 76.5359 157.357 74.699C157.382 72.8621 158.884 71.3958 160.709 71.4203C162.533 71.4447 163.996 72.9508 163.972 74.7877C163.947 76.6245 162.445 78.0908 160.62 78.0664ZM146.57 114.884C146.555 116.081 147.389 117.088 148.509 117.328L149.473 117.341C150.599 117.131 151.46 116.147 151.476 114.95C151.494 113.587 150.409 112.47 149.056 112.452C147.703 112.434 146.589 113.521 146.57 114.884ZM154.18 86.84C154.745 87.2791 155.452 87.5443 156.222 87.5546C158.109 87.5798 159.66 86.0639 159.685 84.1687C159.71 82.2734 158.201 80.7165 156.313 80.6912C154.426 80.6659 152.876 82.1819 152.851 84.0771C152.84 84.8504 153.086 85.5673 153.508 86.1469L149.729 89.842L149.553 103.085L153.756 108.29L153.569 122.325L169.91 122.544L170.005 115.398L172.88 112.586C173.602 113.18 174.522 113.542 175.528 113.556C177.887 113.587 179.825 111.692 179.857 109.323C179.888 106.954 178.001 105.008 175.642 104.976C173.283 104.945 171.346 106.84 171.314 109.209C171.301 110.219 171.636 111.152 172.208 111.893L169.046 114.985L168.959 121.565L154.546 121.372L154.725 107.954L150.522 102.749L150.688 90.2548L154.18 86.84ZM175.541 112.589C173.716 112.565 172.254 111.058 172.278 109.222C172.303 107.385 173.805 105.918 175.629 105.943C177.454 105.967 178.917 107.473 178.893 109.31C178.868 111.147 177.366 112.613 175.541 112.589ZM133 52.9725C130.75 52.7238 129 50.8163 129 48.5C129 46.0147 131.015 44 133.5 44C135.985 44 138 46.0147 138 48.5C138 50.8163 136.25 52.7238 134 52.9725V80.5V80.7212L133.836 80.87L128.336 85.87L127.664 85.13L133 80.2788V52.9725ZM133.5 52C135.433 52 137 50.433 137 48.5C137 46.567 135.433 45 133.5 45C131.567 45 130 46.567 130 48.5C130 50.433 131.567 52 133.5 52ZM123.92 93.7001L129.5 100.675V126.5H130.5V100.5V100.325L130.39 100.188L124.771 93.1633C125.523 92.5213 126 91.5664 126 90.5C126 88.567 124.433 87 122.5 87C120.567 87 119 88.567 119 90.5C119 92.433 120.567 94 122.5 94C123.005 94 123.486 93.8929 123.92 93.7001ZM108.88 54.6746L117.88 65.1746L118 65.315V65.5V94.284L126.343 102.136L126.5 102.284V102.5V105V126.5H125.5V105V102.716L117.157 94.8641L117 94.716V94.5V65.685L108.12 55.3254L108.88 54.6746ZM125.865 55.658L118.546 47.8518C118.836 47.2981 119 46.6682 119 46C119 43.7909 117.209 42 115 42C112.791 42 111 43.7909 111 46C111 48.2091 112.791 50 115 50C116.174 50 117.229 49.4945 117.961 48.6894L125 56.1977V77H126V56V55.8023L125.865 55.658ZM129 54.5V75V79.75L125.516 82.3628L123 80.2658V62V61.7929L122.854 61.6464L119.93 58.723C120.594 58.0089 121 57.0519 121 56C121 53.7909 119.209 52 117 52C114.791 52 113 53.7909 113 56C113 58.2091 114.791 60 117 60C117.796 60 118.537 59.7677 119.16 59.3672L122 62.2071V80.5V80.7342L122.18 80.8841L125.18 83.3841L125.484 83.6372L125.8 83.4L129.8 80.4L130 80.25V80V75V54.5H129ZM141.5 61.9691C143.473 61.723 145 60.0398 145 58C145 55.7909 143.209 54 141 54C138.791 54 137 55.7909 137 58C137 60.0398 138.527 61.723 140.5 61.9691V95.2744L132.169 102.625L132 102.774V103V128H133V103.226L141.331 95.8749L141.5 95.7256V95.5V61.9691ZM182.331 66.3749L174 73.7256V86.5V86.73L173.825 86.8796L167.31 92.4641C167.749 93.2076 168 94.0744 168 95C168 97.7614 165.761 100 163 100C160.239 100 158 97.7614 158 95C158 92.2386 160.239 90 163 90C164.475 90 165.802 90.6391 166.717 91.6556L173 86.27V73.5V73.2744L173.169 73.1251L181.669 65.6251L182.331 66.3749ZM197 95C198.657 95 200 93.6569 200 92C200 90.3431 198.657 89 197 89C195.343 89 194 90.3431 194 92C194 93.6569 195.343 95 197 95ZM197 96C199.209 96 201 94.2091 201 92C201 89.7909 199.209 88 197 88C194.791 88 193 89.7909 193 92C193 94.2091 194.791 96 197 96ZM117 59C118.657 59 120 57.6569 120 56C120 54.3431 118.657 53 117 53C115.343 53 114 54.3431 114 56C114 57.6569 115.343 59 117 59ZM135 93C135 94.6569 133.657 96 132 96C130.343 96 129 94.6569 129 93C129 91.3431 130.343 90 132 90C133.657 90 135 91.3431 135 93ZM136 93C136 95.2091 134.209 97 132 97C129.791 97 128 95.2091 128 93C128 90.7909 129.791 89 132 89C134.209 89 136 90.7909 136 93ZM95 101C97.2091 101 99 99.2091 99 97C99 94.7909 97.2091 93 95 93C92.7909 93 91 94.7909 91 97C91 99.2091 92.7909 101 95 101ZM73.7955 185.429L80.2955 179.153L80.4482 179.005V178.793V162.379V161.879H79.9482H74.9482H74.6915L74.5419 162.088L70.0419 168.364L70.8546 168.947L75.205 162.879H79.4482V178.581L73.1009 184.709L73.7955 185.429ZM81.9487 177.345V159.983H73.2026L67.4968 167.787C68.0867 168.392 68.4482 169.207 68.4482 170.103C68.4482 171.97 66.8812 173.483 64.9482 173.483C63.0152 173.483 61.4482 171.97 61.4482 170.103C61.4482 168.237 63.0152 166.724 64.9482 166.724C65.5877 166.724 66.187 166.89 66.7029 167.179L72.5451 159.188L72.6949 158.983H72.9487H82.4487H82.9487V159.483V177.345H81.9487ZM85.9482 179.546L76.6009 188.571L77.2955 189.291L86.7955 180.118L86.9482 179.971V179.759V168.868L91.7755 164.207C92.6889 165.161 93.9963 165.758 95.4482 165.758C98.2097 165.758 100.448 163.597 100.448 160.931C100.448 158.265 98.2097 156.103 95.4482 156.103C92.6868 156.103 90.4482 158.265 90.4482 160.931C90.4482 162.017 90.8199 163.02 91.4473 163.827L91.1009 163.468L86.1009 168.296L85.9482 168.443V168.655V179.546ZM104.448 166.724V157.252L100.067 152.082L99.9482 151.942V151.759V140.672H93.9482V144.547C95.9214 144.785 97.4482 146.41 97.4482 148.379C97.4482 150.512 95.6574 152.241 93.4482 152.241C91.2391 152.241 89.4482 150.512 89.4482 148.379C89.4482 146.41 90.9751 144.785 92.9482 144.547V140.172V139.672H93.4482H100.448H100.948V140.172V151.575L105.33 156.746L105.448 156.886V157.069V166.724H104.448ZM184.103 178.817C183.686 179.522 183.448 180.337 183.448 181.207C183.448 183.873 185.687 186.034 188.448 186.034C191.21 186.034 193.448 183.873 193.448 181.207C193.448 178.541 191.21 176.379 188.448 176.379C186.955 176.379 185.615 177.011 184.699 178.013L181.949 176.117V165.759V165.536L181.784 165.388L166.449 151.536V141.138V140.638H165.949H158.949H158.449V141.138V150.148L155.044 154.844L154.949 154.976V155.138V166.724H155.949V155.3L159.354 150.604L159.449 150.473V150.31V141.638H165.449V151.759V151.981L165.614 152.13L180.949 165.981V176.379V176.642L181.165 176.791L184.103 178.817ZM96.6537 196.362C99.4708 196.398 101.989 197.6 103.725 199.487L113.179 188.681L113.567 160.588L122.16 153.171V132.025H74.317L69.2575 136.392C71.9777 138.07 73.7644 141.03 73.7182 144.38C73.6472 149.527 69.2761 153.643 63.9551 153.574C58.6341 153.506 54.3781 149.278 54.4491 144.131C54.5201 138.985 58.8912 134.868 64.2122 134.937C65.6976 134.956 67.1001 135.299 68.3485 135.896L73.9452 131.065H123.143V153.603L114.55 161.02L114.163 189.035L104.355 200.247C105.516 201.81 106.188 203.733 106.16 205.805C106.089 210.951 101.718 215.068 96.3966 214.999C91.0756 214.93 86.8196 210.703 86.8906 205.556C86.9616 200.409 91.3327 196.293 96.6537 196.362ZM96.6405 197.316C101.414 197.378 105.235 201.171 105.171 205.792C105.107 210.413 101.183 214.106 96.4098 214.045C91.6363 213.983 87.8154 210.19 87.8791 205.569C87.9428 200.948 91.8671 197.254 96.6405 197.316ZM101.188 183.234C100.972 181.116 99.1395 179.448 96.8876 179.419C94.469 179.388 92.4821 181.259 92.4498 183.598C92.4176 185.937 94.3521 187.859 96.7708 187.89C99.0226 187.919 100.9 186.3 101.174 184.188L106.695 184.259L110.517 179.762L110.89 152.724L117.967 147.731L118.141 135.155L108.394 135.03L108.317 140.623C106.612 140.833 105.285 142.23 105.261 143.939C105.235 145.811 106.783 147.348 108.718 147.373C110.653 147.398 112.242 145.901 112.268 144.03C112.292 142.32 111.003 140.89 109.305 140.636L109.369 135.997L117.139 136.097L116.985 147.242L109.908 152.234L109.534 179.415L106.232 183.299L101.188 183.234ZM100.22 183.698C100.245 181.884 98.7455 180.397 96.8744 180.373C95.0034 180.349 93.4634 181.797 93.4383 183.611C93.4133 185.425 94.9129 186.912 96.7839 186.936C98.655 186.96 100.195 185.512 100.22 183.698ZM109.292 141.604C110.44 141.841 111.296 142.835 111.28 144.017C111.261 145.363 110.118 146.437 108.731 146.419C107.344 146.401 106.231 145.298 106.25 143.952C106.266 142.77 107.149 141.798 108.303 141.591L109.292 141.604ZM101.384 171.004C102.173 171.014 102.898 171.276 103.478 171.709L107.058 168.338L107.228 156L102.919 150.861L103.102 137.611L88.3249 137.42L88.2353 143.917L84.9935 146.97C85.5801 147.702 85.924 148.624 85.9102 149.621C85.878 151.961 83.8911 153.832 81.4725 153.8C79.0538 153.769 77.1193 151.848 77.1516 149.508C77.1839 147.169 79.1707 145.298 81.5893 145.329C82.6207 145.342 83.5641 145.699 84.3045 146.286L87.2522 143.51L87.3495 136.453L104.104 136.669L103.912 150.528L108.222 155.668L108.041 168.745L104.167 172.394C104.6 172.966 104.851 173.674 104.84 174.438C104.815 176.309 103.225 177.806 101.29 177.781C99.3554 177.756 97.8077 176.219 97.8336 174.347C97.8594 172.476 99.4488 170.979 101.384 171.004ZM84.9217 149.608C84.9468 147.795 83.4472 146.307 81.5762 146.283C79.7051 146.259 78.1651 147.707 78.1401 149.521C78.1151 151.335 79.6146 152.822 81.4856 152.846C83.3567 152.87 84.8967 151.422 84.9217 149.608ZM154.387 197.901C156.08 196.056 158.536 194.881 161.284 194.845C166.474 194.778 170.737 198.803 170.806 203.835C170.875 208.867 166.724 213.001 161.535 213.068C156.345 213.136 152.082 209.111 152.012 204.078C151.984 202.053 152.641 200.172 153.773 198.644L144.206 187.682L143.829 160.289L135.448 153.037V131H183.432L188.891 135.724C190.108 135.14 191.476 134.804 192.925 134.786C198.115 134.718 202.378 138.743 202.447 143.776C202.517 148.808 198.366 152.942 193.176 153.009C187.986 153.076 183.723 149.051 183.654 144.019C183.609 140.744 185.351 137.849 188.004 136.208L183.07 131.938H136.407V152.614L144.788 159.866L145.166 187.335L154.387 197.901ZM152.976 204.066C152.914 199.547 156.641 195.839 161.297 195.778C165.952 195.718 169.78 199.329 169.842 203.848C169.904 208.366 166.177 212.075 161.522 212.135C156.866 212.195 153.039 208.584 152.976 204.066ZM161.056 178.279C158.859 178.307 157.072 179.938 156.862 182.009L151.941 182.072L148.722 178.275L148.356 151.699L141.454 146.817L141.304 135.92L148.882 135.822L148.945 140.358C147.289 140.606 146.032 142.005 146.055 143.676C146.08 145.506 147.63 146.97 149.517 146.945C151.404 146.921 152.914 145.418 152.889 143.588C152.866 141.917 151.571 140.551 149.909 140.345L149.833 134.876L140.327 134.999L140.496 147.296L147.398 152.177L147.762 178.614L151.49 183.012L156.875 182.942C157.142 185.007 158.973 186.591 161.17 186.562C163.529 186.532 165.415 184.653 165.384 182.365C165.353 180.078 163.415 178.248 161.056 178.279ZM161.069 179.212C159.244 179.236 157.781 180.69 157.806 182.463C157.83 184.237 159.332 185.653 161.157 185.629C162.982 185.605 164.444 184.151 164.42 182.378C164.395 180.604 162.893 179.188 161.069 179.212ZM147.019 143.664C147.003 142.508 147.838 141.536 148.958 141.304L149.922 141.292C151.048 141.494 151.909 142.445 151.925 143.6C151.943 144.916 150.858 145.995 149.504 146.012C148.151 146.03 147.037 144.98 147.019 143.664ZM154.628 170.741C155.194 170.317 155.901 170.061 156.67 170.051C158.558 170.027 160.108 171.49 160.133 173.32C160.158 175.15 158.649 176.653 156.762 176.678C154.874 176.702 153.324 175.238 153.299 173.409C153.289 172.662 153.534 171.97 153.956 171.41L150.177 167.842L150.001 155.056L154.204 150.03L154.018 136.479L170.358 136.268L170.453 143.168L173.328 145.882C174.051 145.309 174.971 144.96 175.977 144.947C178.336 144.916 180.273 146.746 180.305 149.033C180.336 151.32 178.45 153.199 176.091 153.23C173.732 153.26 171.794 151.431 171.762 149.143C171.749 148.168 172.084 147.267 172.656 146.552L169.495 143.567L169.407 137.213L154.995 137.4L155.173 150.355L150.97 155.381L151.136 167.444L154.628 170.741ZM175.989 145.88C174.165 145.903 172.702 147.358 172.726 149.131C172.751 150.905 174.253 152.32 176.078 152.297C177.903 152.273 179.365 150.819 179.341 149.045C179.316 147.272 177.814 145.856 175.989 145.88ZM133.448 203.44C131.198 203.68 129.448 205.522 129.448 207.759C129.448 210.158 131.462 212.104 133.948 212.104C136.433 212.104 138.448 210.158 138.448 207.759C138.448 205.522 136.698 203.681 134.448 203.44V176.862V176.636L134.278 176.486L128.778 171.659L128.118 172.41L133.448 177.088V203.44ZM124.361 164.114L129.948 157.371V132.448H130.948V157.552V157.732L130.833 157.871L125.224 164.64C125.973 165.26 126.448 166.18 126.448 167.207C126.448 169.073 124.881 170.586 122.948 170.586C121.015 170.586 119.448 169.073 119.448 167.207C119.448 165.34 121.015 163.827 122.948 163.827C123.451 163.827 123.929 163.93 124.361 164.114ZM109.322 201.815L118.322 191.677L118.448 191.535V191.345V163.566L126.785 155.991L126.948 155.842V155.621V153.207V132.448H125.948V153.207V155.4L117.612 162.975L117.448 163.124V163.345V191.155L108.574 201.151L109.322 201.815ZM126.307 200.866L118.998 208.393C119.285 208.926 119.447 209.531 119.447 210.172C119.447 212.305 117.656 214.034 115.447 214.034C113.238 214.034 111.447 212.305 111.447 210.172C111.447 208.039 113.238 206.31 115.447 206.31C116.618 206.31 117.672 206.796 118.403 207.57L125.448 200.315V180.242H126.448V200.518V200.72L126.307 200.866ZM129.448 201.966V182.173V177.6L125.964 175.077L123.448 177.102V194.724V194.937L123.296 195.084L120.385 197.895C121.045 198.583 121.448 199.505 121.448 200.517C121.448 202.65 119.657 204.379 117.448 204.379C115.239 204.379 113.448 202.65 113.448 200.517C113.448 198.384 115.239 196.655 117.448 196.655C118.241 196.655 118.98 196.878 119.601 197.262L119.601 197.261L122.448 194.512V176.862V176.623L122.635 176.473L125.635 174.059L125.932 173.82L126.241 174.044L130.241 176.94L130.448 177.09V177.345V182.173V201.966H129.448ZM141.948 194.754C143.922 194.991 145.449 196.617 145.449 198.586C145.449 200.719 143.658 202.448 141.449 202.448C139.24 202.448 137.449 200.719 137.449 198.586C137.449 196.617 138.976 194.992 140.948 194.754V162.61L132.624 155.519L132.448 155.369V155.138V131H133.448V154.907L141.772 161.999L141.948 162.148V162.379V194.754ZM182.772 190.481L174.448 183.39V171.069V170.834L174.267 170.684L167.764 165.302C168.199 164.586 168.449 163.752 168.449 162.862C168.449 160.196 166.21 158.034 163.449 158.034C160.687 158.034 158.449 160.196 158.449 162.862C158.449 165.528 160.687 167.689 163.449 167.689C164.92 167.689 166.243 167.076 167.158 166.099L173.448 171.304V183.621V183.852L173.624 184.001L182.124 191.243L182.772 190.481ZM197.449 162.896C199.139 162.896 200.449 164.211 200.449 165.758C200.449 167.306 199.139 168.621 197.449 168.621C195.759 168.621 194.449 167.306 194.449 165.758C194.449 164.211 195.759 162.896 197.449 162.896ZM197.449 161.896C199.658 161.896 201.449 163.626 201.449 165.758C201.449 167.891 199.658 169.621 197.449 169.621C195.24 169.621 193.449 167.891 193.449 165.758C193.449 163.626 195.24 161.896 197.449 161.896ZM137.448 207.759C137.448 205.944 135.914 204.414 133.948 204.414C131.981 204.414 130.448 205.944 130.448 207.759C130.448 209.573 131.981 211.104 133.948 211.104C135.914 211.104 137.448 209.573 137.448 207.759ZM117.448 197.655C119.138 197.655 120.448 198.969 120.448 200.517C120.448 202.065 119.138 203.379 117.448 203.379C115.758 203.379 114.448 202.065 114.448 200.517C114.448 198.969 115.758 197.655 117.448 197.655ZM135.448 164.793C135.448 163.245 134.138 161.931 132.448 161.931C130.758 161.931 129.448 163.245 129.448 164.793C129.448 166.341 130.758 167.655 132.448 167.655C134.138 167.655 135.448 166.341 135.448 164.793ZM136.448 164.793C136.448 162.66 134.657 160.931 132.448 160.931C130.239 160.931 128.448 162.66 128.448 164.793C128.448 166.926 130.239 168.655 132.448 168.655C134.657 168.655 136.448 166.926 136.448 164.793ZM95.4482 157.103C97.6907 157.103 99.4482 158.85 99.4482 160.931C99.4482 163.012 97.6907 164.758 95.4482 164.758C93.2057 164.758 91.4482 163.012 91.4482 160.931C91.4482 158.85 93.2057 157.103 95.4482 157.103Z" fill="#181818"/>
</svg>
