<svg width="291" height="291" viewBox="0 0 291 291" fill="none" xmlns="http://www.w3.org/2000/svg">
<path fill-rule="evenodd" clip-rule="evenodd" d="M0 0H291V291H0V0ZM113.456 15.8597L118.563 26.0745L118.616 26.1801V26.2981V67.7981V74.1143L122.274 78.418L125.116 73.1714V41.7981V41.6467L125.2 41.5207L128.116 37.1467V31.2127C127.534 31.0068 127.116 30.4512 127.116 29.7981C127.116 28.9697 127.788 28.2981 128.616 28.2981C129.445 28.2981 130.117 28.9697 130.117 29.7981C130.117 30.4512 129.699 31.0068 129.116 31.2128V37.2981V37.4495L129.032 37.5754L126.116 41.9495V73.2981V73.4248L126.056 73.5362L122.969 79.2352L126.997 83.9743L127.116 84.1143V84.2981V110.693L131.168 119.862L133.117 109.253V98.2127C132.534 98.0068 132.117 97.4512 132.117 96.7981C132.117 95.9697 132.788 95.2981 133.617 95.2981C134.445 95.2981 135.117 95.9697 135.117 96.7981C135.117 97.4512 134.699 98.0068 134.117 98.2128V109.298V109.344L134.108 109.388L131.886 121.487L135.784 130.307C136.533 130.39 137.117 131.026 137.117 131.798C137.117 132.627 136.445 133.298 135.617 133.298C134.788 133.298 134.117 132.627 134.117 131.798C134.117 131.273 134.386 130.811 134.795 130.543L130.909 121.75L126.159 111L126.116 110.904V110.798V84.4819L121.985 79.6219L117.735 74.6219L117.616 74.4819V74.2981V68.0052L110.763 61.1517L110.616 61.0052V60.7981V39.5193L105.584 34.9444C105.322 35.1651 104.985 35.2981 104.616 35.2981C103.788 35.2981 103.116 34.6265 103.116 33.7981C103.116 32.9697 103.788 32.2981 104.616 32.2981C105.444 32.2981 106.116 32.9697 106.116 33.7981C106.116 33.8863 106.108 33.9727 106.094 34.0567L111.452 38.9281L111.616 39.0769V39.2981V60.591L117.616 66.591V26.4161L112.393 15.9692C110.849 15.8525 109.632 14.5628 109.632 12.9889C109.632 11.3382 110.97 10 112.621 10C114.272 10 115.61 11.3382 115.61 12.9889C115.61 14.3499 114.701 15.4985 113.456 15.8597ZM175.117 26.4674L181.515 18.1018L180.72 17.4944L174.22 25.9944L174.117 26.1288V26.2981V35.1022L161.75 48.4584L161.617 48.6022V48.7981V61.6451L156.742 57.0813V42.9706L162.054 36.189C162.228 36.2593 162.418 36.2981 162.617 36.2981C163.446 36.2981 164.117 35.6265 164.117 34.7981C164.117 33.9697 163.446 33.2981 162.617 33.2981C161.789 33.2981 161.117 33.9697 161.117 34.7981C161.117 35.0617 161.185 35.3094 161.304 35.5246L155.848 42.4898L155.742 42.6256V42.7981V57.2981V57.5149L155.9 57.6631L161.617 63.0149V85.591L156.742 90.466V70.7981V70.6036L156.611 70.4602L147.117 60.1036V49.2128C147.699 49.0068 148.117 48.4512 148.117 47.7981C148.117 46.9697 147.445 46.2981 146.617 46.2981C145.788 46.2981 145.117 46.9697 145.117 47.7981C145.117 48.4512 145.534 49.0068 146.117 49.2127V60.2981V60.4926L146.248 60.636L155.742 70.9926V91.466L150.867 96.341V78.7981V78.5936L150.724 78.4477L137.117 64.5936V46.4806L144.309 37.9404C144.854 38.5263 145.632 38.8928 146.496 38.8928C148.147 38.8928 149.485 37.5546 149.485 35.9039C149.485 34.2532 148.147 32.915 146.496 32.915C144.846 32.915 143.507 34.2532 143.507 35.9039C143.507 36.3148 143.59 36.7063 143.74 37.0626L136.234 45.976L136.117 46.1156V46.2981V64.7981V65.0026L136.26 65.1485L149.867 79.0026V97.341L144.992 102.216V98.7981V83.2981V83.0922L144.847 82.946L130.116 68.0922V46.471L135.053 40.1885C135.227 40.2592 135.417 40.2981 135.617 40.2981C136.445 40.2981 137.117 39.6265 137.117 38.7981C137.117 37.9697 136.445 37.2981 135.617 37.2981C134.788 37.2981 134.117 37.9697 134.117 38.7981C134.117 39.0613 134.184 39.3087 134.303 39.5237L129.223 45.9892L129.116 46.1252V46.2981V68.2981V68.504L129.261 68.6502L143.992 83.504V98.1319L138.117 96.4228V85.7981V85.591L137.97 85.4445L132.97 80.4448C133.064 80.249 133.117 80.0297 133.117 79.7981C133.117 78.9697 132.445 78.2981 131.617 78.2981C130.788 78.2981 130.117 78.9697 130.117 79.7981C130.117 80.6265 130.788 81.2981 131.617 81.2981C131.848 81.2981 132.067 81.2456 132.263 81.1519L137.117 86.0052V96.7981V97.1734L137.477 97.2782L143.992 99.1734V103.204L137.778 108.93L137.6 109.094L137.618 109.335L139.015 128.424C138.486 128.656 138.117 129.184 138.117 129.798C138.117 130.627 138.788 131.298 139.617 131.298C140.445 131.298 141.117 130.627 141.117 129.798C141.117 129.107 140.649 128.524 140.012 128.351L138.633 109.502L144.831 103.791L144.838 103.784L144.845 103.777L150.72 97.9016L156.596 92.0266L162.471 86.1516L162.617 86.0052V85.7981V62.7981V48.994L174.984 35.6378L175.117 35.494V35.2981V26.4674ZM180.117 29.2128C180.7 29.0069 181.117 28.4512 181.117 27.7981C181.117 26.9697 180.446 26.2981 179.617 26.2981C178.789 26.2981 178.117 26.9697 178.117 27.7981C178.117 28.4512 178.535 29.0068 179.117 29.2127V36.0967L166.757 48.9515L166.617 49.0967V49.2981V86.5844L143.771 108.437L143.622 108.579L143.617 108.786L143.14 127.876C142.545 128.075 142.117 128.636 142.117 129.298C142.117 130.127 142.788 130.798 143.617 130.798C144.445 130.798 145.117 130.127 145.117 129.298C145.117 128.654 144.71 128.104 144.14 127.892L144.611 109.017L167.463 87.1594L167.617 87.0117V86.7981V49.4995L179.978 36.6447L180.117 36.4995V36.2981V29.2128ZM184.357 41.2755L178.117 47.9944V87.7981V88.0018L177.975 88.1476L156.575 110.045L152.311 129.468C152.79 129.718 153.117 130.22 153.117 130.798C153.117 131.627 152.445 132.298 151.617 132.298C150.788 132.298 150.117 131.627 150.117 130.798C150.117 130.072 150.633 129.466 151.318 129.328L155.629 109.691L155.659 109.551L155.759 109.449L177.117 87.5943V47.7981V47.6017L177.251 47.4579L183.468 40.7623C183.249 40.5016 183.117 40.1652 183.117 39.7981C183.117 38.9697 183.789 38.2981 184.618 38.2981C185.446 38.2981 186.118 38.9697 186.118 39.7981C186.118 40.6265 185.446 41.2981 184.618 41.2981C184.529 41.2981 184.441 41.2903 184.357 41.2755ZM103.116 45.2127C102.533 45.0068 102.116 44.4512 102.116 43.7981C102.116 42.9697 102.788 42.2981 103.616 42.2981C104.444 42.2981 105.116 42.9697 105.116 43.7981C105.116 44.4512 104.699 45.0068 104.116 45.2128V68.604L119.985 85.9607L120.116 86.104V86.2981V124.616L131.059 133.405C131.231 133.336 131.419 133.298 131.617 133.298C132.445 133.298 133.117 133.97 133.117 134.798C133.117 135.627 132.445 136.298 131.617 136.298C130.788 136.298 130.117 135.627 130.117 134.798C130.117 134.537 130.183 134.292 130.3 134.079L119.303 125.245L113.007 120.188L101.803 111.188L101.616 111.038V110.798V104.298H80.6156H80.4084L80.262 104.152L65.262 89.1519C65.0662 89.2456 64.8469 89.2981 64.6153 89.2981C63.7868 89.2981 63.1153 88.6265 63.1153 87.7981C63.1153 86.9697 63.7868 86.2981 64.6153 86.2981C65.4437 86.2981 66.1153 86.9697 66.1153 87.7981C66.1153 88.0297 66.0628 88.249 65.9691 88.4448L80.8227 103.298H101.616V99.2981H80.6156H80.4084L80.262 99.1516L74.2619 93.1516L74.1154 93.0052V92.7981V83.0481L66.3153 77.1981L66.1153 77.0481V76.7981V64.5052L51.766 50.1562C51.2476 50.5884 50.5807 50.8485 49.8529 50.8485C48.2022 50.8485 46.864 49.5103 46.864 47.8596C46.864 46.2089 48.2022 44.8707 49.8529 44.8707C51.5037 44.8707 52.8419 46.2089 52.8419 47.8596C52.8419 48.4207 52.6873 48.9457 52.4183 49.3943L66.9688 63.9445L67.1153 64.091V64.2981V76.5481L74.9154 82.3981L75.1154 82.5481V82.7981V92.591L80.8227 98.2981H101.616V91.7981H85.1156H84.8857L84.736 91.6235L78.7359 84.6235L78.6155 84.4831V84.2981V65.971L73.2588 59.1535C73.0638 59.2462 72.8457 59.2981 72.6154 59.2981C71.787 59.2981 71.1154 58.6265 71.1154 57.7981C71.1154 56.9697 71.787 56.2981 72.6154 56.2981C73.4439 56.2981 74.1155 56.9697 74.1155 57.7981C74.1155 58.0828 74.0361 58.349 73.8984 58.5758L74.0086 58.4892L79.5087 65.4892L79.6155 65.6252V65.7981V84.1131L85.3456 90.7981H101.616V87.4926L96.3959 81.7981H88.1157H87.8481L87.6997 81.5754L84.8372 77.2818C84.7649 77.2925 84.6909 77.2981 84.6157 77.2981C83.7872 77.2981 83.1156 76.6265 83.1156 75.7981C83.1156 74.9697 83.7872 74.2981 84.6157 74.2981C85.4441 74.2981 86.1157 74.9697 86.1157 75.7981C86.1157 76.1876 85.9672 76.5424 85.7239 76.809L88.3833 80.7981H96.6159H96.8358L96.9844 80.9602L101.616 86.0127V77.0527L90.8217 69.2025L90.6158 69.0527V68.7981V52.8399C89.005 52.794 87.7134 51.474 87.7134 49.8522C87.7134 48.2014 89.0516 46.8633 90.7023 46.8633C92.3531 46.8633 93.6913 48.2014 93.6913 49.8522C93.6913 51.1844 92.8198 52.313 91.6158 52.699V68.5435L102.41 76.3937L102.616 76.5435V76.7981V87.2981V91.2981V98.7981V103.798V110.558L112.82 118.755V111.055L107.428 107.205L107.218 107.055V106.798V96.2447C106.583 96.0704 106.116 95.4887 106.116 94.7981C106.116 93.9697 106.788 93.2981 107.616 93.2981C108.445 93.2981 109.116 93.9697 109.116 94.7981C109.116 95.4124 108.747 95.9405 108.218 96.1724V106.541L112.82 109.827V88.4972L107.879 83.2751C107.794 83.2902 107.706 83.2981 107.616 83.2981C106.788 83.2981 106.116 82.6265 106.116 81.7981C106.116 80.9697 106.788 80.2981 107.616 80.2981C108.445 80.2981 109.116 80.9697 109.116 81.7981C109.116 82.1638 108.985 82.499 108.768 82.7593L113.683 87.9544L113.82 88.099V88.2981V110.798V119.558L119.116 123.813V86.4922L103.247 69.1355L103.116 68.9922V68.7981V45.2127ZM187.142 46.0669C187.126 45.9797 187.118 45.8899 187.118 45.7981C187.118 44.9697 187.789 44.2981 188.618 44.2981C189.446 44.2981 190.118 44.9697 190.118 45.7981C190.118 46.6265 189.446 47.2981 188.618 47.2981C188.256 47.2981 187.924 47.1702 187.665 46.9573L182.117 52.5052V90.2981V90.5052L181.971 90.6516L174.824 97.7981H179.399L191.618 84.6021V59.4366L189.089 55.2225C188.941 55.2715 188.782 55.2981 188.618 55.2981C187.789 55.2981 187.118 54.6265 187.118 53.7981C187.118 52.9697 187.789 52.2981 188.618 52.2981C189.446 52.2981 190.118 52.9697 190.118 53.7981C190.118 54.0943 190.032 54.3704 189.884 54.603L192.546 59.0408L192.618 59.1596V59.2981V84.7981V84.994L192.485 85.1378L179.984 98.6378L179.836 98.7981H179.617H173.83L161.067 112.052L155.761 131.828C155.983 132.089 156.117 132.428 156.117 132.798C156.117 133.627 155.445 134.298 154.617 134.298C153.789 134.298 153.117 133.627 153.117 132.798C153.117 131.97 153.789 131.298 154.617 131.298C154.7 131.298 154.782 131.305 154.862 131.318L160.134 111.669L160.168 111.544L160.257 111.451L173.257 97.9513L173.264 97.9445L181.117 90.091V52.2981V52.091L181.264 51.9445L187.142 46.0669ZM241.349 52.2458L217.85 74.6599L209.618 82.5121V103.23L217.005 97.0641V86.1676C216.482 85.9332 216.118 85.4082 216.118 84.7981C216.118 83.9697 216.79 83.2981 217.618 83.2981C218.447 83.2981 219.118 83.9697 219.118 84.7981C219.118 85.4927 218.646 86.077 218.005 86.2477V97.2981V97.5321L217.826 97.682L209.618 104.532V111.692L221.118 101.572V88.7981V88.5611L221.302 88.4111L226.234 84.3759C226.159 84.1981 226.118 84.0029 226.118 83.7981C226.118 82.9697 226.79 82.2981 227.618 82.2981C228.447 82.2981 229.118 82.9697 229.118 83.7981C229.118 84.6265 228.447 85.2981 227.618 85.2981C227.36 85.2981 227.118 85.233 226.905 85.1182L222.118 89.035V101.798V102.024L221.949 102.173L209.448 113.173L209.447 113.174L181.447 137.674L181.305 137.798H181.117H160.754L160.745 137.809C160.977 138.073 161.117 138.419 161.117 138.798C161.117 139.627 160.445 140.298 159.617 140.298C158.789 140.298 158.117 139.627 158.117 138.798C158.117 137.97 158.789 137.298 159.617 137.298C159.699 137.298 159.78 137.305 159.859 137.318L172.617 121.125V112.298V112.091L172.764 111.945L179.264 105.445L179.41 105.298H179.617H188.939L193.388 101.658C193.218 101.414 193.118 101.118 193.118 100.798C193.118 99.9697 193.789 99.2981 194.618 99.2981C195.446 99.2981 196.118 99.9697 196.118 100.798C196.118 101.627 195.446 102.298 194.618 102.298C194.488 102.298 194.363 102.282 194.243 102.251L189.434 106.185L189.296 106.298H189.118H179.825L173.617 112.505V121.298V121.471L173.51 121.608L169.026 127.298H180.926L199.618 110.575V73.7981V73.6116L199.74 73.4706L206.145 66.0808C206.127 65.9893 206.118 65.8948 206.118 65.7981C206.118 64.9697 206.79 64.2981 207.618 64.2981C208.446 64.2981 209.118 64.9697 209.118 65.7981C209.118 66.6265 208.446 67.2981 207.618 67.2981C207.268 67.2981 206.946 67.1783 206.691 66.9774L200.618 73.9846V110.798V111.022L200.451 111.171L181.451 128.171L181.308 128.298H181.117H168.239L165.875 131.298H181.427L203.618 111.574V81.7981V81.591L203.764 81.4445L211.618 73.591V62.2981V62.091L211.764 61.9445L215.264 58.4448C215.171 58.249 215.118 58.0297 215.118 57.7981C215.118 56.9697 215.79 56.2981 216.618 56.2981C217.447 56.2981 218.118 56.9697 218.118 57.7981C218.118 58.6265 217.447 59.2981 216.618 59.2981C216.387 59.2981 216.167 59.2456 215.971 59.1519L212.618 62.5052V73.7981V74.0052L212.472 74.1517L204.618 82.0052V111.798V112.023L204.45 112.172L181.95 132.172L181.808 132.298H181.617H165.087L161.541 136.798H180.93L208.618 112.571V104.298V82.2981V82.084L208.773 81.9363L217.005 74.084V63.7981V63.6189L217.119 63.4805L221.232 58.4805L221.323 58.5554C221.193 58.3331 221.118 58.0743 221.118 57.7981C221.118 56.9697 221.79 56.2981 222.618 56.2981C223.447 56.2981 224.118 56.9697 224.118 57.7981C224.118 58.6265 223.447 59.2981 222.618 59.2981C222.388 59.2981 222.169 59.246 221.974 59.153L218.005 63.9773V73.1302L240.66 51.5214C240.338 51.0448 240.151 50.4704 240.151 49.8522C240.151 48.2014 241.489 46.8633 243.14 46.8633C244.791 46.8633 246.129 48.2014 246.129 49.8522C246.129 51.5029 244.791 52.8411 243.14 52.8411C242.468 52.8411 241.848 52.6197 241.349 52.2458ZM199.744 52.4083L196.118 56.4882V87.7981V87.9948L195.984 88.1388L182.483 102.639L182.335 102.798H182.117H175.324L170.117 108.005V119.298V119.459L170.023 119.59L158.915 135.045C159.043 135.266 159.117 135.524 159.117 135.798C159.117 136.627 158.445 137.298 157.617 137.298C156.789 137.298 156.117 136.627 156.117 135.798C156.117 134.97 156.789 134.298 157.617 134.298C157.805 134.298 157.984 134.333 158.15 134.396L169.117 119.137V107.798V107.591L169.264 107.445L174.764 101.945L174.91 101.798H175.117H181.9L195.118 87.6014V56.2981V56.108L195.244 55.9659L198.988 51.7538C198.562 51.2371 198.305 50.5746 198.305 49.8522C198.305 48.2014 199.643 46.8633 201.294 46.8633C202.945 46.8633 204.283 48.2014 204.283 49.8522C204.283 51.5029 202.945 52.8411 201.294 52.8411C200.727 52.8411 200.196 52.683 199.744 52.4083ZM173.117 64.2128V86.7981V87.0052L172.971 87.1516L151.088 109.034L148.248 128.437C148.761 128.675 149.117 129.195 149.117 129.798C149.117 130.627 148.445 131.298 147.617 131.298C146.788 131.298 146.117 130.627 146.117 129.798C146.117 129.096 146.6 128.506 147.251 128.343L150.122 108.726L150.146 108.562L150.263 108.445L172.117 86.591V64.2127C171.535 64.0068 171.117 63.4512 171.117 62.7981C171.117 61.9697 171.789 61.2981 172.617 61.2981C173.446 61.2981 174.117 61.9697 174.117 62.7981C174.117 63.4512 173.7 64.0068 173.117 64.2128ZM53.8366 89.7981H59.1152H59.3245L59.4714 89.9472L72.9716 103.652L81.6359 112.447L92.3251 123.298H101.409L93.2625 115.152C93.0667 115.246 92.8474 115.298 92.6158 115.298C91.7874 115.298 91.1158 114.627 91.1158 113.798C91.1158 112.97 91.7874 112.298 92.6158 112.298C93.4442 112.298 94.1158 112.97 94.1158 113.798C94.1158 114.03 94.0633 114.249 93.9696 114.445L102.823 123.298H110.616H110.769L110.896 123.384L122.896 131.484L122.917 131.498L122.936 131.513L128.909 136.475C129.119 136.362 129.36 136.298 129.616 136.298C130.445 136.298 131.117 136.97 131.117 137.798C131.117 138.627 130.445 139.298 129.616 139.298C128.788 139.298 128.116 138.627 128.116 137.798C128.116 137.76 128.118 137.722 128.121 137.684L103.558 134.795L103.418 134.778L103.307 134.691L96.3069 129.191L96.3936 129.081C96.1668 129.219 95.9006 129.298 95.6159 129.298C94.7874 129.298 94.1158 128.627 94.1158 127.798C94.1158 126.97 94.7874 126.298 95.6159 126.298C96.4443 126.298 97.1159 126.97 97.1159 127.798C97.1159 128.028 97.064 128.247 96.9713 128.441L103.814 133.818L127.499 136.604L122.411 132.378L108.559 130.795L108.407 130.777L108.291 130.678L105.314 128.126C105.105 128.236 104.868 128.298 104.616 128.298C103.788 128.298 103.116 127.627 103.116 126.798C103.116 125.97 103.788 125.298 104.616 125.298C105.444 125.298 106.116 125.97 106.116 126.798C106.116 127.009 106.073 127.21 105.994 127.392L108.825 129.819L120.643 131.169L110.463 124.298H102.616H92.1158H91.9065L91.7596 124.149L81.0704 113.298H54.6151H54.408L54.2615 113.152L49.2617 108.152C49.0659 108.246 48.8466 108.298 48.615 108.298C47.7865 108.298 47.115 107.627 47.115 106.798C47.115 105.97 47.7865 105.298 48.615 105.298C49.4434 105.298 50.115 105.97 50.115 106.798C50.115 107.03 50.0625 107.249 49.9688 107.445L54.8222 112.298H80.0853L72.4061 104.503H57.6151H57.4007L57.2529 104.347L53.2616 100.152C53.0658 100.246 52.8466 100.298 52.6151 100.298C51.7866 100.298 51.115 99.6265 51.115 98.7981C51.115 97.9697 51.7866 97.2981 52.6151 97.2981C53.4435 97.2981 54.1151 97.9697 54.1151 98.7981C54.1151 99.0421 54.0568 99.2725 53.9534 99.4762L53.9773 99.4535L57.8296 103.503H71.421L58.9058 90.7981H53.6316C53.195 91.9078 52.1138 92.6933 50.8491 92.6933C49.1983 92.6933 47.8601 91.3551 47.8601 89.7044C47.8601 88.0536 49.1983 86.7155 50.8491 86.7155C52.4998 86.7155 53.838 88.0536 53.838 89.7044C53.838 89.7357 53.8375 89.767 53.8366 89.7981ZM233.9 90.2981H234.118H239.181C239.378 88.8378 240.629 87.7118 242.143 87.7118C243.794 87.7118 245.132 89.05 245.132 90.7008C245.132 92.3515 243.794 93.6897 242.143 93.6897C240.697 93.6897 239.491 92.6626 239.214 91.2981H234.336L228.118 97.9944V102.798V103.025L227.948 103.174L220.949 109.298H228.618H228.779L228.909 109.391L235.779 114.298H245.922L252.253 108.42C252.167 108.23 252.119 108.02 252.119 107.798C252.119 106.97 252.79 106.298 253.619 106.298C254.447 106.298 255.119 106.97 255.119 107.798C255.119 108.627 254.447 109.298 253.619 109.298C253.377 109.298 253.149 109.241 252.947 109.14L246.459 115.164L246.315 115.298H246.119H235.618H235.458L235.328 115.205L228.458 110.298H219.804L182.945 142.176L182.809 142.294L182.629 142.298L162.039 142.777C161.839 143.37 161.278 143.798 160.617 143.798C159.789 143.798 159.117 143.127 159.117 142.298C159.117 141.47 159.789 140.798 160.617 140.798C161.262 140.798 161.812 141.205 162.024 141.777L182.426 141.302L219.289 109.422L219.291 109.42L227.118 102.571V97.7981V97.6017L227.252 97.4579L233.752 90.4579L233.9 90.2981ZM37.8723 108.276C37.7886 108.291 37.7026 108.298 37.6148 108.298C36.7863 108.298 36.1147 107.627 36.1147 106.798C36.1147 105.97 36.7863 105.298 37.6148 105.298C38.4432 105.298 39.1148 105.97 39.1148 106.798C39.1148 107.168 38.9812 107.506 38.7597 107.767L47.3376 117.298H76.1155H76.3123L76.4563 117.432L98.33 137.814L127.231 140.223C127.457 139.68 127.992 139.298 128.616 139.298C129.445 139.298 130.117 139.97 130.117 140.798C130.117 141.627 129.445 142.298 128.616 142.298C127.935 142.298 127.36 141.844 127.177 141.222L98.0744 138.796L97.9017 138.782L97.775 138.664L75.9186 118.298H47.1149H46.8923L46.7433 118.133L37.8723 108.276ZM16.9701 108.798H25.6145H25.8268L25.9742 108.951L39.827 123.298H71.6154H71.8033L71.9446 123.422L89.6593 138.922L95.8037 144.298H111.366H126.202C126.408 143.715 126.963 143.298 127.616 143.298C128.445 143.298 129.116 143.97 129.116 144.798C129.116 145.627 128.445 146.298 127.616 146.298C126.963 146.298 126.408 145.881 126.202 145.298H111.568L104.963 151.658L104.818 151.798H104.616H86.1157H85.9132L85.7678 151.657L79.3136 145.405L58.8405 155.744L58.7342 155.798H58.6151H39.7923L31.9697 162.154C32.0626 162.349 32.1147 162.568 32.1147 162.798C32.1147 163.627 31.4431 164.298 30.6146 164.298C29.7862 164.298 29.1146 163.627 29.1146 162.798C29.1146 161.97 29.7862 161.298 30.6146 161.298C30.8932 161.298 31.1541 161.374 31.3776 161.506L31.2993 161.41L39.2995 154.91L39.4373 154.798H39.6148H58.4961L78.5534 144.668L74.6612 140.898L63.3288 146.25L63.2274 146.298H63.1152H54.0297C53.8238 146.881 53.2682 147.298 52.6151 147.298C51.7866 147.298 51.115 146.627 51.115 145.798C51.115 144.97 51.7866 144.298 52.6151 144.298C53.2682 144.298 53.8238 144.715 54.0297 145.298H63.0031L73.8938 140.155L69.9129 136.298H56.7818L44.9149 145.198L44.7815 145.298H44.6149H38.786C38.4373 146.562 37.2792 147.49 35.9044 147.49C34.2537 147.49 32.9155 146.152 32.9155 144.501C32.9155 142.851 34.2537 141.512 35.9044 141.512C37.4869 141.512 38.7822 142.742 38.8866 144.298H44.4482L56.3151 135.398L56.4484 135.298H56.6151H70.1154H70.3178L70.4633 135.439L75.1085 139.939L79.7537 144.439L86.3181 150.798H104.414L110.126 145.298H95.6158H95.428L95.2866 145.174L89.1421 139.798H81.6156H81.4217L81.2784 139.667L69.9214 129.298H53.7866L44.9704 136.155C45.0631 136.35 45.1149 136.568 45.1149 136.798C45.1149 137.627 44.4433 138.298 43.6149 138.298C42.7864 138.298 42.1149 137.627 42.1149 136.798C42.1149 135.97 42.7864 135.298 43.6149 135.298C43.9014 135.298 44.1692 135.378 44.3969 135.518L44.3079 135.403L53.3081 128.403L53.4435 128.298H53.6151H70.1154H70.3093L70.4525 128.429L81.8095 138.798H87.9993L71.4275 124.298H39.6148H39.4025L39.2551 124.145L25.4023 109.798H16.7395C16.2857 110.871 15.2235 111.623 13.9856 111.623C12.3348 111.623 10.9966 110.285 10.9966 108.634C10.9966 106.984 12.3348 105.645 13.9856 105.645C15.6363 105.645 16.9745 106.984 16.9745 108.634C16.9745 108.689 16.9731 108.744 16.9701 108.798ZM267.357 111.798H267.619H275.027C275.024 111.74 275.022 111.682 275.022 111.623C275.022 109.972 276.36 108.634 278.011 108.634C279.662 108.634 281 109.972 281 111.623C281 113.274 279.662 114.612 278.011 114.612C276.777 114.612 275.718 113.865 275.262 112.798H267.881L263.53 119.083L263.381 119.298H263.119H255.331L240.978 134.146L240.831 134.298H240.619H231.118H230.922L230.779 134.165L217.598 121.96L215.622 123.574L231.316 138.298H240.42L249.275 129.935L249.42 129.798H249.619H258.898L263.749 124.462L264.489 125.134L259.489 130.634L259.34 130.798H259.119H249.818L240.962 139.162L240.817 139.298H240.619H231.118H230.921L230.776 139.163L214.841 124.212L212.854 125.835L227.825 140.798H250.619H250.804L250.944 140.918L254.143 143.66C254.442 143.56 254.763 143.505 255.096 143.505C256.747 143.505 258.085 144.843 258.085 146.494C258.085 148.145 256.747 149.483 255.096 149.483C253.445 149.483 252.107 148.145 252.107 146.494C252.107 145.559 252.536 144.724 253.208 144.176L250.434 141.798H227.618H227.411L227.265 141.652L212.076 126.471L210.405 127.836L229.826 147.298H241.204C241.41 146.715 241.965 146.298 242.619 146.298C243.447 146.298 244.119 146.97 244.119 147.798C244.119 148.627 243.447 149.298 242.619 149.298C241.965 149.298 241.41 148.881 241.204 148.298H229.618H229.411L229.264 148.151L209.627 128.472L182.434 150.685L182.28 150.811L182.083 150.797L161.508 149.361C161.285 149.911 160.746 150.298 160.117 150.298C159.289 150.298 158.617 149.627 158.617 148.798C158.617 147.97 159.289 147.298 160.117 147.298C160.794 147.298 161.366 147.746 161.553 148.362L181.955 149.786L209.345 127.411L211.793 125.411L214.547 123.161L217.302 120.911L217.44 120.798H217.618H227.618H227.808L227.95 120.924L236.647 128.655C236.909 128.432 237.248 128.298 237.619 128.298C238.447 128.298 239.119 128.97 239.119 129.798C239.119 130.627 238.447 131.298 237.619 131.298C236.79 131.298 236.118 130.627 236.118 129.798C236.118 129.711 236.126 129.625 236.14 129.542L227.428 121.798H218.894L231.314 133.298H240.406L254.759 118.451L254.907 118.298H255.119H262.857L267.208 112.013L267.357 111.798ZM218.433 114.298H218.618H227.118H227.27L227.396 114.382L234.77 119.298H247.449L253.125 114.932C253.121 114.888 253.119 114.843 253.119 114.798C253.119 113.97 253.79 113.298 254.619 113.298C255.447 113.298 256.119 113.97 256.119 114.798C256.119 115.627 255.447 116.298 254.619 116.298C254.205 116.298 253.83 116.131 253.559 115.86L247.924 120.194L247.789 120.298H247.619H234.618H234.467L234.341 120.214L226.967 115.298H218.804L182.944 146.177L182.803 146.298H182.617H162.032C161.826 146.881 161.27 147.298 160.617 147.298C159.789 147.298 159.117 146.627 159.117 145.798C159.117 144.97 159.789 144.298 160.617 144.298C161.27 144.298 161.826 144.715 162.032 145.298H182.432L218.292 114.419L218.433 114.298ZM204.939 140.298H205.118H215.618H215.83L215.978 140.451L229.831 154.798H242.119H242.299L242.437 154.913L256.637 166.664C256.9 166.436 257.243 166.298 257.619 166.298C258.447 166.298 259.119 166.97 259.119 167.798C259.119 168.627 258.447 169.298 257.619 169.298C256.79 169.298 256.119 168.627 256.119 167.798C256.119 167.714 256.126 167.631 256.139 167.55L241.939 155.798H229.618H229.406L229.259 155.645L215.406 141.298H205.296L199.934 145.685L199.796 145.798H199.618H194.793L182.43 155.689L182.262 155.822L182.05 155.794L160.659 152.877C160.39 153.138 160.022 153.298 159.617 153.298C158.789 153.298 158.117 152.627 158.117 151.798C158.117 150.97 158.789 150.298 159.617 150.298C160.445 150.298 161.117 150.97 161.117 151.798C161.117 151.842 161.115 151.886 161.111 151.929L181.973 154.774L194.305 144.908L194.442 144.798H194.618H199.439L204.801 140.411L204.939 140.298ZM127.262 149.443C127.503 149.949 128.019 150.298 128.616 150.298C129.445 150.298 130.117 149.627 130.117 148.798C130.117 147.97 129.445 147.298 128.616 147.298C127.918 147.298 127.331 147.776 127.164 148.422L106.535 155.298H73.6154H73.4912L73.3815 155.356L56.4909 164.298H39.1148H38.9247L38.7826 164.424L25.3961 176.323L15.4527 177.679C14.9138 176.896 14.0113 176.383 12.989 176.383C11.3382 176.383 10 177.721 10 179.372C10 181.023 11.3382 182.361 12.989 182.361C14.6397 182.361 15.9779 181.023 15.9779 179.372C15.9779 179.116 15.9457 178.867 15.885 178.629L25.6821 177.294L25.8329 177.273L25.9467 177.172L39.3049 165.298H56.6151H56.7393L56.849 165.24L73.7396 156.298H106.616H106.697L106.774 156.272L127.262 149.443ZM199.45 150.298H199.618H214.118L214.118 150.798L214.118 151.298H199.786L186.604 161.298H195.911L200.764 156.445L200.911 156.298H201.118H220.204C220.409 155.715 220.965 155.298 221.618 155.298C222.447 155.298 223.118 155.97 223.118 156.798C223.118 157.627 222.447 158.298 221.618 158.298C220.965 158.298 220.409 157.881 220.204 157.298H201.325L197.325 161.298H228.118H228.285L228.418 161.398L230.285 162.798H240.119H240.275L240.404 162.888L251.613 170.685C251.879 170.445 252.232 170.298 252.619 170.298C253.447 170.298 254.119 170.97 254.119 171.798C254.119 172.627 253.447 173.298 252.619 173.298C251.79 173.298 251.119 172.627 251.119 171.798C251.119 171.721 251.125 171.645 251.136 171.571L239.962 163.798H231.77L258.77 181.798H274.079C274.342 180.416 275.557 179.372 277.015 179.372C278.666 179.372 280.004 180.71 280.004 182.361C280.004 184.012 278.666 185.35 277.015 185.35C275.513 185.35 274.269 184.242 274.058 182.798H258.619H258.467L258.342 182.714L229.841 163.714L229.829 163.706L229.818 163.698L227.952 162.298H196.118H185.118H181.117H181.041L180.969 162.276L159.819 155.696C159.545 156.061 159.109 156.298 158.617 156.298C157.789 156.298 157.117 155.627 157.117 154.798C157.117 153.97 157.789 153.298 158.617 153.298C159.426 153.298 160.086 153.939 160.116 154.741L181.193 161.298H184.949L199.316 150.4L199.45 150.298ZM214.118 150.798C214.118 149.97 214.79 149.298 215.618 149.298C216.447 149.298 217.118 149.97 217.118 150.798C217.118 151.627 216.447 152.298 215.618 152.298C214.79 152.298 214.118 151.627 214.118 150.798ZM128.643 153.939C128.905 154.163 129.245 154.298 129.616 154.298C130.445 154.298 131.117 153.627 131.117 152.798C131.117 151.97 130.445 151.298 129.616 151.298C128.788 151.298 128.116 151.97 128.116 152.798C128.116 152.892 128.125 152.985 128.142 153.074L110.482 163.298H73.6154H73.4759L73.3565 163.37L54.4755 174.798H40.6148H40.4203L40.2769 174.93L34.2768 180.43L34.3152 180.471C34.1061 180.361 33.8677 180.298 33.6147 180.298C32.7863 180.298 32.1147 180.97 32.1147 181.798C32.1147 182.627 32.7863 183.298 33.6147 183.298C34.4431 183.298 35.1147 182.627 35.1147 181.798C35.1147 181.567 35.0623 181.348 34.9688 181.152L40.8093 175.798H54.6151H54.7546L54.874 175.726L73.755 164.298H110.616H110.75L110.867 164.231L128.643 153.939ZM130.897 157.114C131.11 157.231 131.356 157.298 131.617 157.298C132.445 157.298 133.117 156.627 133.117 155.798C133.117 154.97 132.445 154.298 131.617 154.298C130.788 154.298 130.117 154.97 130.117 155.798C130.117 156 130.156 156.192 130.229 156.368L113.441 169.798H109.116H74.1154H73.9689L73.8456 169.877L54.4686 182.298H46.0296C45.8237 181.715 45.268 181.298 44.6149 181.298C43.7865 181.298 43.1149 181.97 43.1149 182.798C43.1149 183.627 43.7865 184.298 44.6149 184.298C45.268 184.298 45.8237 183.881 46.0296 183.298H54.6151H54.7616L54.8849 183.219L74.2619 170.798H108.134L104.861 175.298H87.0303C86.8244 174.715 86.2688 174.298 85.6157 174.298C84.7872 174.298 84.1156 174.97 84.1156 175.798C84.1156 176.627 84.7872 177.298 85.6157 177.298C86.2688 177.298 86.8244 176.881 87.0303 176.298H105.116H105.371L105.52 176.092L109.371 170.798H113.616H113.792L113.929 170.689L130.897 157.114ZM157.887 158.096C158.033 157.865 158.117 157.591 158.117 157.298C158.117 156.47 157.445 155.798 156.617 155.798C155.789 155.798 155.117 156.47 155.117 157.298C155.117 158.127 155.789 158.798 156.617 158.798C156.785 158.798 156.946 158.771 157.097 158.72L160.691 164.56L160.703 164.58L160.717 164.598L165.209 170.587L169.201 176.575L169.35 176.798H169.617H208.908L233.761 202.148L233.908 202.298H234.118H237.162C237.168 203.944 238.504 205.276 240.151 205.276C241.802 205.276 243.14 203.938 243.14 202.287C243.14 200.636 241.802 199.298 240.151 199.298C238.847 199.298 237.738 200.133 237.329 201.298H234.328L209.475 175.948L209.328 175.798H209.118H169.885L166.551 170.798H174.529L179.947 172.768L180.029 172.798H180.117H213.423L232.28 190.166L232.423 190.298H232.618H247.119V189.298H232.814L213.957 171.93L213.813 171.798H213.618H180.205L174.788 169.828L174.705 169.798H174.617H165.867L162.117 164.798H175.525L181.938 167.265L182.025 167.298H182.117H216.921L232.141 181.536C232.126 181.621 232.118 181.709 232.118 181.798C232.118 182.627 232.79 183.298 233.618 183.298C234.447 183.298 235.118 182.627 235.118 181.798C235.118 180.97 234.447 180.298 233.618 180.298C233.252 180.298 232.916 180.43 232.655 180.648L217.46 166.433L217.316 166.298H217.118H182.21L175.797 163.831L175.71 163.798H175.617H161.396L157.887 158.096ZM132.954 160.144C133.154 160.243 133.379 160.298 133.617 160.298C134.445 160.298 135.117 159.627 135.117 158.798C135.117 157.97 134.445 157.298 133.617 157.298C132.788 157.298 132.117 157.97 132.117 158.798C132.117 159.023 132.166 159.237 132.255 159.429L111.416 179.298H74.1154H73.9497L73.8168 179.397L50.471 196.782C50.0054 196.483 49.4514 196.309 48.8568 196.309C47.2061 196.309 45.8679 197.647 45.8679 199.298C45.8679 200.949 47.2061 202.287 48.8568 202.287C50.5076 202.287 51.8458 200.949 51.8458 199.298C51.8458 198.609 51.6129 197.975 51.2216 197.47L74.2812 180.298H111.616H111.816L111.961 180.16L132.954 160.144ZM155.063 160.462C155.401 160.187 155.617 159.768 155.617 159.298C155.617 158.47 154.945 157.798 154.117 157.798C153.289 157.798 152.617 158.47 152.617 159.298C152.617 160.122 153.282 160.791 154.105 160.798L165.181 180.543L165.324 180.798H165.617H172.895L182.117 190.991V223.798V223.991L182.247 224.134L196.945 240.301C196.549 240.808 196.313 241.446 196.313 242.139C196.313 243.79 197.651 245.128 199.302 245.128C200.952 245.128 202.291 243.79 202.291 242.139C202.291 240.488 200.952 239.15 199.302 239.15C198.705 239.15 198.149 239.325 197.683 239.626L183.117 223.605V190.798V190.605L182.988 190.463L174.244 180.798H181.379L189.618 190.975V221.798V222.015L189.776 222.164L197.277 229.164L197.421 229.298H197.618H210.886L216.145 235.513C216.127 235.605 216.118 235.701 216.118 235.798C216.118 236.627 216.79 237.298 217.618 237.298C218.447 237.298 219.118 236.627 219.118 235.798C219.118 234.97 218.447 234.298 217.618 234.298C217.27 234.298 216.95 234.417 216.695 234.615L211.5 228.475L211.35 228.298H211.118H197.815L190.618 221.581V190.798V190.621L190.506 190.483L182.666 180.798H189.86L197.118 190.958V195.298V217.798V218.048L197.318 218.198L205.318 224.198L205.451 224.298H205.618H222.407L238.856 241.217C238.421 241.736 238.159 242.405 238.159 243.135C238.159 244.786 239.497 246.124 241.148 246.124C242.798 246.124 244.137 244.786 244.137 243.135C244.137 241.485 242.798 240.146 241.148 240.146C240.589 240.146 240.066 240.3 239.619 240.567L222.977 223.45L222.829 223.298H222.618H205.785L198.118 217.548V195.798H203.384L208.118 201.479V210.383C207.535 210.589 207.118 211.145 207.118 211.798C207.118 212.627 207.79 213.298 208.618 213.298C209.446 213.298 210.118 212.627 210.118 211.798C210.118 211.145 209.701 210.589 209.118 210.383V201.298V201.117L209.002 200.978L204.002 194.978L203.852 194.798H203.618H198.118V190.798V190.638L198.025 190.507L191.089 180.798H203.405L216.118 194V205.798V206.022L216.285 206.171L225.247 214.189C225.164 214.375 225.118 214.581 225.118 214.798C225.118 215.627 225.79 216.298 226.618 216.298C227.447 216.298 228.118 215.627 228.118 214.798C228.118 213.97 227.447 213.298 226.618 213.298C226.372 213.298 226.14 213.357 225.934 213.463L217.118 205.575V193.798V193.596L216.978 193.451L203.978 179.951L203.831 179.798H203.618H190.118H181.617H173.117H165.91L155.063 160.462ZM151.852 161.65C152.019 161.408 152.117 161.114 152.117 160.798C152.117 159.97 151.445 159.298 150.617 159.298C149.788 159.298 149.117 159.97 149.117 160.798C149.117 161.627 149.788 162.298 150.617 162.298C150.76 162.298 150.898 162.278 151.029 162.241L161.617 183.416V187.798V196.298V196.501L161.758 196.646L177.117 212.501V226.798V226.98L177.235 227.12L187.293 239.094C187.181 239.304 187.118 239.544 187.118 239.798C187.118 240.627 187.789 241.298 188.618 241.298C189.446 241.298 190.118 240.627 190.118 239.798C190.118 238.97 189.446 238.298 188.618 238.298C188.409 238.298 188.211 238.341 188.031 238.417L178.117 226.616V212.298V212.096L177.976 211.95L163.298 196.798H168.919L177.14 204.536C177.125 204.621 177.117 204.709 177.117 204.798C177.117 205.627 177.789 206.298 178.617 206.298C179.446 206.298 180.117 205.627 180.117 204.798C180.117 203.97 179.446 203.298 178.617 203.298C178.251 203.298 177.916 203.429 177.655 203.647L169.46 195.934L169.315 195.798H169.117H162.617V188.298H168.9L175.275 195.128C175.174 195.33 175.117 195.557 175.117 195.798C175.117 196.627 175.789 197.298 176.617 197.298C177.446 197.298 178.117 196.627 178.117 195.798C178.117 194.97 177.446 194.298 176.617 194.298C176.395 194.298 176.184 194.346 175.994 194.433L169.483 187.457L169.334 187.298H169.117H162.617V183.298V183.18L162.564 183.074L151.852 161.65ZM135.457 161.75L132.763 164.445L126.263 170.945L113.409 183.798H78.6155H78.4463L78.3118 183.901L61.3115 196.901L61.1152 197.051V197.298V206.383C60.5326 206.589 60.1152 207.145 60.1152 207.798C60.1152 208.627 60.7868 209.298 61.6152 209.298C62.4437 209.298 63.1153 208.627 63.1153 207.798C63.1153 207.145 62.6978 206.589 62.1152 206.383V197.545L78.7848 184.798H113.616H113.823L113.97 184.652L126.116 172.505V180.085L113.415 192.298H96.1158H90.1157H85.6156H78.6155H78.4317L78.2917 192.417L68.2915 200.917L68.1153 201.067V201.298V212.091L56.7616 223.445L56.6151 223.591V223.798V231.591L49.0748 239.131C48.5281 238.531 47.7401 238.154 46.8641 238.154C45.2134 238.154 43.8751 239.492 43.8751 241.143C43.8751 242.794 45.2134 244.132 46.8641 244.132C48.5149 244.132 49.8531 242.794 49.8531 241.143C49.8531 240.736 49.7719 240.349 49.6249 239.995L57.4687 232.152L57.6151 232.005V231.798V224.005L68.9689 212.652L69.1153 212.505V212.298V201.529L78.7993 193.298H84.3127L75.281 201.426L75.1155 201.575V201.798V208.383C74.5329 208.589 74.1155 209.145 74.1155 209.798C74.1155 210.627 74.787 211.298 75.6155 211.298C76.4439 211.298 77.1155 210.627 77.1155 209.798C77.1155 209.145 76.6981 208.589 76.1155 208.383V202.021L85.8075 193.298H89.6157V208.575L80.4245 216.798H73.1154H72.9276L72.7862 216.922L65.3064 223.466C65.0996 223.359 64.8645 223.298 64.6153 223.298C63.7868 223.298 63.1153 223.97 63.1153 224.798C63.1153 225.627 63.7868 226.298 64.6153 226.298C65.4437 226.298 66.1153 225.627 66.1153 224.798C66.1153 224.584 66.0706 224.381 65.99 224.197L73.3033 217.798H80.6156H80.8066L80.949 217.671L90.4491 209.171L90.6157 209.022V208.798V193.298H95.6158V212.116L87.8831 221.298H79.1155H78.8995L78.7514 221.455L71.2415 229.435C71.0509 229.347 70.8389 229.298 70.6154 229.298C69.7869 229.298 69.1154 229.97 69.1154 230.798C69.1154 231.627 69.7869 232.298 70.6154 232.298C71.4438 232.298 72.1154 231.627 72.1154 230.798C72.1154 230.558 72.0592 230.332 71.9593 230.131L79.3316 222.298H88.1157H88.3483L88.4981 222.12L96.4983 212.62L96.6158 212.481V212.298V193.298H113.616H113.818L113.963 193.159L126.963 180.659L127.116 180.511V180.298V171.505L132.617 166.005V182.081L100.774 211.933L100.616 212.081V212.298V229.569L90.8196 238.03C90.279 237.491 89.5332 237.158 88.7096 237.158C87.0589 237.158 85.7207 238.496 85.7207 240.147C85.7207 241.797 87.0589 243.136 88.7096 243.136C90.3604 243.136 91.6986 241.797 91.6986 240.147C91.6986 239.681 91.5922 239.24 91.4023 238.848L101.443 230.177L101.616 230.027V229.798V212.515L133.459 182.663L133.617 182.515V182.298V165.005L136.348 162.274C136.435 162.29 136.525 162.298 136.617 162.298C137.445 162.298 138.117 161.627 138.117 160.798C138.117 159.97 137.445 159.298 136.617 159.298C135.788 159.298 135.117 159.97 135.117 160.798C135.117 161.16 135.244 161.491 135.457 161.75ZM148.437 163.054C148.846 162.786 149.117 162.324 149.117 161.798C149.117 160.97 148.445 160.298 147.617 160.298C146.788 160.298 146.117 160.97 146.117 161.798C146.117 162.573 146.704 163.21 147.457 163.29L155.534 184.669L149.767 190.301L142.017 197.871L134.267 205.44L134.117 205.588V205.798V218.298V230.798V230.98L134.234 231.12L144.617 243.48V253.101C144.579 253.099 144.542 253.099 144.504 253.099C142.853 253.099 141.515 254.437 141.515 256.087C141.515 257.738 142.853 259.076 144.504 259.076C146.154 259.076 147.493 257.738 147.493 256.087C147.493 254.83 146.716 253.754 145.617 253.313V243.298V243.116L145.5 242.977L135.117 230.616V219.472L147.263 231.151C147.169 231.347 147.117 231.567 147.117 231.798C147.117 232.627 147.788 233.298 148.617 233.298C149.445 233.298 150.117 232.627 150.117 231.798C150.117 230.97 149.445 230.298 148.617 230.298C148.375 230.298 148.147 230.355 147.945 230.456L147.963 230.438L135.117 218.085V206.009L141.867 199.416V213.798V214.019L142.03 214.167L156.117 227.019V244.383C155.534 244.589 155.117 245.145 155.117 245.798C155.117 246.627 155.789 247.298 156.617 247.298C157.445 247.298 158.117 246.627 158.117 245.798C158.117 245.145 157.7 244.589 157.117 244.383V226.798V226.577L156.954 226.429L142.867 213.577V198.439L149.617 191.846V208.798V209.01L149.77 209.158L164.117 223.01V248.798V249.005L164.264 249.152L178.617 263.505V275.114C177.334 275.45 176.386 276.617 176.386 278.006C176.386 279.657 177.725 280.995 179.375 280.995C181.026 280.995 182.364 279.657 182.364 278.006C182.364 276.437 181.155 275.15 179.617 275.027V263.298V263.091L179.471 262.945L165.117 248.591V222.798V222.586L164.964 222.438L150.617 208.586V190.869L155.617 185.985V203.298V203.501L155.758 203.646L171.117 219.501V241.298V241.512L171.272 241.659L182.257 252.167C182.167 252.358 182.117 252.572 182.117 252.798C182.117 253.627 182.789 254.298 183.618 254.298C184.446 254.298 185.118 253.627 185.118 252.798C185.118 251.97 184.446 251.298 183.618 251.298C183.38 251.298 183.155 251.353 182.956 251.452L172.117 241.084V219.298V219.096L171.976 218.95L156.617 203.096V184.798V184.707L156.585 184.621L148.437 163.054ZM144.642 162.893C144.934 162.619 145.117 162.23 145.117 161.798C145.117 160.97 144.445 160.298 143.617 160.298C142.788 160.298 142.117 160.97 142.117 161.798C142.117 162.627 142.788 163.298 143.617 163.298C143.644 163.298 143.672 163.297 143.699 163.296L147.578 184.63L123.763 208.445L123.616 208.591V208.798V221.798V247.091L108.763 261.945L108.616 262.091V262.298V274.021C106.975 274.032 105.647 275.366 105.647 277.01C105.647 278.661 106.986 279.999 108.636 279.999C110.287 279.999 111.625 278.661 111.625 277.01C111.625 275.702 110.786 274.591 109.616 274.185V262.505L124.47 247.652L124.616 247.505V247.298V223.163L129.116 228.481V244.298H129.616C128.788 244.298 128.116 244.97 128.116 245.798C128.116 246.627 128.788 247.298 129.616 247.298C130.445 247.298 131.117 246.627 131.117 245.798C131.117 244.97 130.445 244.298 129.616 244.298H130.116V228.298V228.115L129.998 227.975L124.616 221.615V209.005L148.47 185.152L148.656 184.966L148.609 184.709L144.642 162.893ZM140.117 163.213V183.298V183.505L139.97 183.652L118.616 205.005V240.298V240.519L118.453 240.668L107.985 250.184C108.069 250.371 108.116 250.579 108.116 250.798C108.116 251.627 107.445 252.298 106.616 252.298C105.788 252.298 105.116 251.627 105.116 250.798C105.116 249.97 105.788 249.298 106.616 249.298C106.86 249.298 107.091 249.356 107.295 249.46L117.616 240.077V204.798V204.591L117.763 204.445L139.117 183.091V163.213C138.534 163.007 138.117 162.451 138.117 161.798C138.117 160.97 138.788 160.298 139.617 160.298C140.445 160.298 141.117 160.97 141.117 161.798C141.117 162.451 140.699 163.007 140.117 163.213ZM182.364 17.9704C184.014 17.9704 185.353 16.6322 185.353 14.9815C185.353 13.3308 184.014 11.9926 182.364 11.9926C180.713 11.9926 179.375 13.3308 179.375 14.9815C179.375 16.6322 180.713 17.9704 182.364 17.9704ZM267.119 123.798C267.119 124.627 266.447 125.298 265.619 125.298C264.791 125.298 264.119 124.627 264.119 123.798C264.119 122.97 264.791 122.298 265.619 122.298C266.447 122.298 267.119 122.97 267.119 123.798ZM250.119 189.798C250.119 190.627 249.447 191.298 248.619 191.298C247.79 191.298 247.119 190.627 247.119 189.798C247.119 188.97 247.79 188.298 248.619 188.298C249.447 188.298 250.119 188.97 250.119 189.798Z" fill="#181818"/>
</svg>
